<?xml version="1.0" encoding="UTF-8"?>
<svg width="489px" height="409px" viewBox="0 0 489 409" version="1.1" xmlns="http://www.w3.org/2000/svg" xmlns:xlink="http://www.w3.org/1999/xlink">
    <!-- Generator: sketchtool 55.2 (78181) - https://sketchapp.com -->
    <title>0F6158F9-CF61-46E1-920F-2B55B5E8DCE8</title>
    <desc>Created with sketchtool.</desc>
    <g id="Page-5" stroke="none" stroke-width="1" fill="none" fill-rule="evenodd">
        <g id="2.-Approach" transform="translate(-802.000000, -228.000000)" fill-rule="nonzero">
            <g id="Hero" transform="translate(150.000000, 228.000000)">
                <g id="approach-image" transform="translate(652.000000, 0.000000)">
                    <path d="M331,102.436364 L56.0511912,102.436364 C12.5803778,-12.595191 103.36144,-22.3144218 223.37875,31.6471617 C265.001879,50.3615449 306.156411,70.5889205 331,102.436364 Z M138.063492,257.229091 L327.595238,257.229091 C303.508459,291.116627 265.429529,313 222.568161,313 C181.774248,313 158.148466,289.525489 138.063492,257.229091 Z" id="Combined-Shape" fill="#E4E4E4"></path>
                    <path d="M32,157.690443 C36.5495298,152.255481 41.6862843,147.146144 47.9555979,143.770744 C54.2249114,140.395344 61.7772576,138.897444 68.6223566,140.904772 C73.7321378,142.403214 78.08755,145.699691 82.1183934,149.144032 C90.3770006,156.201024 97.9922067,164.280781 107.733234,169.157137 C117.474262,174.033493 130.309489,174.94366 138.583275,167.90399 C145.131478,162.332512 147.923322,152.682253 155.74307,149.045743 C163.451519,145.461005 172.38936,149.310346 180.211556,152.646157 C190.834238,157.175618 201.826829,160.807087 213.071117,163.501512 C220.677687,165.323861 228.513382,166.720767 236.305316,165.987894 C244.09725,165.255021 251.917916,162.174488 257,156.29572" id="Path" fill="#000000" opacity="0.1"></path>
                    <path d="M143,190.690443 C147.54953,185.255481 152.68628,180.146144 158.955598,176.770744 C165.224917,173.395344 172.777258,171.897444 179.622353,173.904772 C184.732139,175.403214 189.08757,178.699695 193.11839,182.144037 C201.376997,189.201028 208.992208,197.280781 218.733236,202.157137 C228.474264,207.033493 241.309491,207.94366 249.583278,200.90399 C256.131481,195.332512 258.923324,185.682258 266.743072,182.045743 C274.451522,178.461005 283.389364,182.310351 291.21156,185.646161 C301.834242,190.17562 312.826834,193.807089 324.071121,196.501517 C331.677691,198.323866 339.513386,199.720767 347.30532,198.987894 C355.097255,198.255021 362.917921,195.174492 368,189.29572" id="Path" fill="#000000" opacity="0.1"></path>
                    <path d="M34,154.690443 C38.5495299,149.255476 43.6862845,144.146138 49.9556031,140.770743 C56.2249216,137.395348 63.7772582,135.897443 70.6223574,137.904771 C75.7321387,139.403213 80.087551,142.699695 84.1183945,146.144036 C92.3770018,153.201028 99.9922082,161.280781 109.733241,166.157137 C119.474273,171.033493 132.309491,171.94366 140.583282,164.90399 C147.131481,159.332512 149.923329,149.682258 157.743077,146.045747 C165.451527,142.461009 174.389364,146.31035 182.21156,149.646161 C192.834242,154.175619 203.826834,157.807088 215.071121,160.501516 C222.677691,162.323866 230.513386,163.720772 238.305315,162.987899 C246.097245,162.255025 253.917916,159.174492 259,153.295724" id="Path" fill="#3F3D56"></path>
                    <path d="M147,183.690447 C151.54953,178.25548 156.68628,173.146142 162.955598,169.770747 C169.224917,166.395352 176.777258,164.897442 183.622353,166.90477 C188.732139,168.403212 193.087546,171.699694 197.11839,175.144035 C205.376997,182.201027 212.992208,190.28078 222.733236,195.157136 C232.474264,200.033492 245.309491,200.943659 253.583278,193.903994 C260.131481,188.332511 262.923324,178.682257 270.743072,175.045746 C278.451522,171.461008 287.389364,175.310349 295.21156,178.64616 C305.834242,183.175619 316.826834,186.807088 328.071121,189.501516 C335.677691,191.323865 343.513386,192.720771 351.30532,191.987898 C359.097255,191.255025 366.917921,188.174491 372,182.295723" id="Path" fill="#3F3D56"></path>
                    <circle id="Oval" fill="#000000" opacity="0.1" cx="29" cy="123" r="10"></circle>
                    <circle id="Oval" fill="#6C63FF" cx="32" cy="119" r="10"></circle>
                    <path d="M354,147 L373.026212,147 C374.324596,139.389842 374.324596,131.610158 373.026212,124 L354,124 C356.143455,131.512661 356.143455,139.487339 354,147 L354,147 Z" id="Path" fill="#000000" opacity="0.1"></path>
                    <path d="M356,144 L375.026212,144 C376.324596,136.389842 376.324596,128.610158 375.026212,121 L356,121 C358.143455,128.512661 358.143455,136.487339 356,144 L356,144 Z" id="Path" fill="#6C63FF"></path>
                    <path d="M50.2562124,294.159344 C66.8297933,343.588828 61.0091174,390 61.0091174,390 C61.0091174,390 28.317375,356.270139 11.7437891,306.840656 C-4.82979678,257.411172 0.990884112,211 0.990884112,211 C0.990884112,211 33.6826265,244.729861 50.2562124,294.159344 Z" id="Path" fill="#2CA7B9"></path>
                    <path d="M69.74379,294.159344 C53.1702028,343.588828 58.9908842,390 58.9908842,390 C58.9908842,390 91.6826292,356.270139 108.256211,306.840656 C124.829794,257.411172 119.009117,211 119.009117,211 C119.009117,211 86.3173723,244.729861 69.74379,294.159344 Z" id="Path" fill="#2CA7B9"></path>
                    <path d="M77.9547679,296.078549 C79.0475046,347.717172 59.9785779,390 59.9785779,390 C59.9785779,390 39.1379687,348.560074 38.0452321,296.921451 C36.9524954,245.282828 56.0214221,203 56.0214221,203 C56.0214221,203 76.8620265,244.439926 77.9547679,296.078549 Z" id="Path" fill="#3F3D56"></path>
                    <ellipse id="Oval" fill="#3F3D56" cx="60" cy="389.5" rx="46" ry="2.5"></ellipse>
                    <circle id="Oval" fill="#6C63FF" cx="58" cy="251" r="6"></circle>
                    <circle id="Oval" fill="#6C63FF" cx="46.5" cy="290.5" r="2.5"></circle>
                    <circle id="Oval" fill="#3F3D56" cx="12.5" cy="261.5" r="2.5"></circle>
                    <circle id="Oval" fill="#3F3D56" cx="112.5" cy="233.5" r="2.5"></circle>
                    <circle id="Oval" fill="#3F3D56" cx="29.5" cy="290.5" r="2.5"></circle>
                    <circle id="Oval" fill="#3F3D56" cx="86.5" cy="271.5" r="2.5"></circle>
                    <circle id="Oval" fill="#3F3D56" cx="29.5" cy="330.5" r="2.5"></circle>
                    <circle id="Oval" fill="#3F3D56" cx="88.5" cy="313.5" r="2.5"></circle>
                    <circle id="Oval" fill="#6C63FF" cx="61.5" cy="316.5" r="2.5"></circle>
                    <path d="M323,161 L303.973792,161 C302.675403,153.389842 302.675403,145.610158 303.973792,138 L323,138 C320.856545,145.512661 320.856545,153.487339 323,161 L323,161 Z" id="Path" fill="#000000" opacity="0.1"></path>
                    <path d="M328,156 L308.973792,156 C307.675403,148.389842 307.675403,140.610158 308.973792,133 L328,133 C325.856545,140.512661 325.856545,148.487339 328,156 L328,156 Z" id="Path" fill="#02D6A3"></path>
                    <polygon id="Path" fill="#FFB9B9" points="463.11789 368 467 381.815924 455 383 456.058716 368"></polygon>
                    <polygon id="Path" fill="#FFB9B9" points="401 379 401 396 386 396 390.230513 379"></polygon>
                    <path d="M453.708126,247.505501 L459.667824,304.714292 C459.667824,304.714292 467.117443,355.148352 465.627517,363.0522 C464.137592,370.956048 466,372.085169 466,372.085169 L454.825569,372.085169 C454.825569,372.085169 455.198052,367.192309 452.963166,364.934067 C450.728279,362.675825 451.845722,355.901103 451.845722,355.901103 L423.537172,268.582426 L407.520491,317.510995 C407.520491,317.510995 404.913117,371.332428 404.540644,372.085169 C404.168171,372.83791 403.050719,383 403.050719,383 L389.268929,383 C389.268929,383 391.131332,376.978024 388.523963,375.096157 C385.916594,373.21429 383.681713,374.719782 385.91659,371.332418 C388.151466,367.945055 388.896436,363.804946 388.151476,361.923079 C387.406515,360.041212 387.40651,352.51374 387.40651,352.51374 C387.40651,352.51374 388.523954,250.892864 394.856129,247.505496 C401.188305,244.118127 453.708126,247.505501 453.708126,247.505501 Z" id="Path" fill="#2F2E41"></path>
                    <path d="M398.773524,389.199627 C398.773524,389.199627 405.442964,388.256922 405.442964,388.571159 C405.442964,388.885395 413.446295,409.310643 405.442964,408.996411 C397.439633,408.68218 367.093678,404.597124 369.094507,397.055491 C371.095336,389.513859 381.099501,391.713524 381.099501,391.713524 L390.103249,387 L398.773524,389.199627 Z" id="Path" fill="#2F2E41"></path>
                    <path d="M459.226479,382.199653 C459.226479,382.199653 452.557034,381.256949 452.557034,381.571185 C452.557034,381.885421 444.553708,402.310647 452.557034,401.996411 C460.560359,401.682175 490.906318,397.59713 488.905494,390.055512 C486.90467,382.513893 476.9005,384.713551 476.9005,384.713551 L467.896737,380 L459.226479,382.199653 Z" id="Path" fill="#2F2E41"></path>
                    <path d="M433,300 L409.217239,300 C407.594254,290.404584 407.594254,280.595416 409.217239,271 L433,271 C430.320682,280.472486 430.320682,290.527514 433,300 L433,300 Z" id="Path" fill="#6C63FF"></path>
                    <circle id="Oval" fill="#FFB9B9" cx="422.5" cy="127.5" r="14.5"></circle>
                    <path d="M434.003777,126 C434.003777,126 436.513716,153.176461 439.740769,155.117646 C442.967822,157.05883 415,159 415,159 C415,159 421.812674,134.152946 419.661307,131.823534 C417.50994,129.494123 434.003777,126 434.003777,126 Z" id="Path" fill="#FFB9B9"></path>
                    <path d="M402.180384,152.571529 C402.180384,152.571529 412.838219,142.339193 425.018603,144.23407 C437.198988,146.128946 445.953639,148.402799 445.953639,148.402799 C445.953639,148.402799 464.604846,158.256162 464.985485,166.214624 C465.366124,174.173086 458.134018,204.112172 458.134018,204.112172 C458.134018,204.112172 454.708284,253 454.327651,253 C453.947017,253 390,252.242046 390,252.242046 L401.799746,188.574171 L402.180384,152.571529 Z" id="Path" fill="#3F3D56"></path>
                    <path d="M405.172923,243.784021 C407.619033,244.436225 411.835533,243.534302 416.237096,242.110648 C424.088755,239.56517 432.525627,235.350054 432.525627,235.350054 C432.525627,235.350054 459.704705,224.542057 467.631933,218.951719 C475.55916,213.36138 470.27435,191 470.27435,191 L458.194759,194.726897 L458.949737,208.516409 L429.128247,227.523572 C424.442284,227.957406 419.815368,228.875518 415.323505,230.262828 C410.302907,231.89148 405.425802,234.429493 403.662962,238.327834 C403.38804,238.922724 403.192622,239.550378 403.081621,240.195015 C402.72304,242.252249 403.568603,243.351684 405.172923,243.784021 Z" id="Path" fill="#FFB9B9"></path>
                    <path d="M405,238.219314 C405.500711,240.186777 405.98709,242.05929 406.441008,243.779889 C408.77543,244.444571 412.799409,243.525392 417,242.074499 L416.128132,230 C411.336794,231.659812 406.682341,234.246385 405,238.219314 Z" id="Path" fill="#000000" opacity="0.15"></path>
                    <path d="M408.341725,183 L410.604798,202.976677 L414.35773,252.267178 C414.35773,252.267178 435.121415,277.229643 423.428877,277.983454 C411.73634,278.737265 405.324295,253.483754 405.324295,253.483754 C405.324295,253.483754 393.631752,213.530394 394.008933,205.238189 C394.386114,196.945984 394.008933,183 394.008933,183 L408.341725,183 Z" id="Path" fill="#FFB9B9"></path>
                    <path d="M405.698508,127.303224 C405.302984,127.14802 404.935698,126.931018 404.610915,126.660646 C403.785237,125.87476 403.924443,124.543025 404.282992,123.47077 C404.64154,122.398515 405.165434,121.289939 404.908694,120.189946 C404.789058,119.67737 404.504237,119.208556 404.422872,118.688808 C404.2294,117.45292 405.23475,116.326502 406.347508,115.716262 C407.460266,115.106021 408.740177,114.805405 409.791811,114.098544 C411.404596,113.014507 412.295105,111.102655 413.932462,110.054644 C415.533673,109.029756 417.568194,108.997992 419.480237,109 L425.188443,109.00632 C428.17155,109.009578 431.449629,109.118044 433.669805,111.072125 C434.345093,111.666478 434.879946,112.402478 435.563811,112.987318 C436.941131,114.165203 438.800046,114.63535 440.329569,115.616104 C442.64965,117.137902 444.029901,119.705309 443.999508,122.442561 C443.945502,124.926712 442.710925,127.339887 443.031701,129.804619 C443.246882,131.457996 444.156907,133.046663 443.91782,134.696895 C443.634307,136.653974 441.803853,138.055924 439.926695,138.775714 C438.049538,139.495504 436.003069,139.753974 434.176656,140.589941 C432.685829,141.272308 431.128389,142.35998 429.556887,141.8825 C428.22743,141.478561 427.497935,140.101516 427.021614,138.818932 C426.464646,137.318817 426.055458,135.76983 425.799655,134.19319 C425.60839,133.013816 425.481557,131.763863 424.775359,130.791031 C423.932186,129.714622 422.580926,129.143035 421.204002,129.280334 C418.121749,129.546036 416.386675,134.694421 413.552205,133.476894 C412.146703,132.873169 411.066793,131.066256 409.941023,130.08101 C408.667393,128.963622 407.239089,128.02844 405.698508,127.303224 Z" id="Path" fill="#2F2E41"></path>
                    <path d="M460.172663,164 C460.172663,164 467.223023,166.595512 470.043166,176.977522 C472.863309,187.359532 471.805755,194.404488 471.805755,194.404488 L457,197 L460.172663,164 Z" id="Path" fill="#3F3D56"></path>
                    <path d="M409.959183,152.316329 C409.959183,152.316329 397.46939,149.227178 395.734697,162.356072 C394.649363,171.187447 394.06996,180.086732 394,189 C394,189 405.795917,182.821699 411,189 L409.959183,152.316329 Z" id="Path" fill="#3F3D56"></path>
                </g>
            </g>
        </g>
    </g>
</svg>