<?xml version="1.0" encoding="UTF-8"?>
<svg width="488px" height="265px" viewBox="0 0 488 265" version="1.1" xmlns="http://www.w3.org/2000/svg" xmlns:xlink="http://www.w3.org/1999/xlink">
    <!-- Generator: sketchtool 55.2 (78181) - https://sketchapp.com -->
    <title>1D6F0B00-F540-402A-B2F0-E60A9781DD2D</title>
    <desc>Created with sketchtool.</desc>
    <g id="Page-5" stroke="none" stroke-width="1" fill="none" fill-rule="evenodd">
        <g id="1.-Home" transform="translate(-149.000000, -957.000000)" fill-rule="nonzero">
            <g id="Services" transform="translate(0.000000, 872.000000)">
                <g id="Design-an-experience" transform="translate(149.000000, 0.000000)">
                    <g id="Img" transform="translate(0.000000, 85.000000)">
                        <g id="undraw_mobile_wireframe_euf4-(1)" transform="translate(113.000000, 0.000000)">
                            <rect id="Rectangle" fill="#1E1E1E" x="0" y="0" width="308.886581" height="178" rx="4"></rect>
                            <path d="M132.021579,86.2549655 L67.5399807,86.2549655 C67.3462928,86.2549655 67.1605234,86.1795451 67.0235654,86.0451691 C66.8866074,85.9107932 66.8097379,85.728526 66.8097379,85.5384897 L66.8097379,60.232397 C66.8097379,60.0423611 66.8866076,59.8600945 67.0235657,59.7257193 C67.1605239,59.5913441 67.3462933,59.5159262 67.5399807,59.5159262 L132.021579,59.5159262 C132.215285,59.5159262 132.401089,59.5912651 132.53806,59.7256534 C132.67503,59.8600418 132.751817,60.0423432 132.751817,60.232397 L132.751817,85.5384799 C132.751817,85.7285358 132.675034,85.9108403 132.538064,86.0452315 C132.401093,86.1796228 132.215287,86.2549655 132.021579,86.2549655 Z M68.2702235,84.822019 L131.291336,84.822019 L131.291336,60.9488628 L68.2702235,60.9488628 L68.2702235,84.822019 Z" id="Shape" fill="#FFFFFF"></path>
                            <path d="M94.718121,103.505959 L67.5340995,103.505959 C67.3419716,103.505959 67.1576983,103.425899 67.0218433,103.283256 C66.8859883,103.140614 66.8097379,102.947135 66.8097379,102.745408 L66.8097379,91.3282642 C66.8097379,91.1265376 66.8859883,90.9330581 67.0218433,90.7904159 C67.1576983,90.6477737 67.3419716,90.5677137 67.5340995,90.5677137 L94.718121,90.5677137 C94.9102676,90.5677137 95.094576,90.6476896 95.2304442,90.7903456 C95.3663123,90.9330017 95.4424827,91.1265181 95.4424827,91.3282642 L95.4424827,102.745408 C95.4424827,102.947154 95.3663123,103.140671 95.2304442,103.283327 C95.094576,103.425983 94.9102676,103.505959 94.718121,103.505959 L94.718121,103.505959 Z M68.2584611,101.984863 L93.9937594,101.984863 L93.9937594,92.0888145 L68.2584611,92.0888145 L68.2584611,101.984863 Z" id="Shape" fill="#FFFFFF"></path>
                            <path d="M132.02746,103.505959 L104.843434,103.505959 C104.651287,103.505959 104.466979,103.425983 104.331111,103.283327 C104.195243,103.140671 104.119072,102.947154 104.119072,102.745408 L104.119072,91.3282642 C104.119072,91.1265181 104.195243,90.9330017 104.331111,90.7903456 C104.466979,90.6476896 104.651287,90.5677137 104.843434,90.5677137 L132.02746,90.5677137 C132.219606,90.5677137 132.403914,90.6476898 132.539782,90.7903459 C132.675649,90.9330021 132.751817,91.1265186 132.751817,91.3282642 L132.751817,102.745408 C132.751817,102.947154 132.675649,103.14067 132.539782,103.283326 C132.403914,103.425983 132.219606,103.505959 132.02746,103.505959 Z M105.567791,101.984863 L131.303098,101.984863 L131.303098,92.0888145 L105.567791,92.0888145 L105.567791,101.984863 Z" id="Shape" fill="#FFFFFF"></path>
                            <path d="M131.154741,86.2549655 C131.063541,86.2549655 130.973163,86.237523 130.888281,86.2037698 L67.2726754,60.9411883 C67.0301038,60.8448496 66.8567449,60.6248651 66.8179012,60.3641008 C66.7790575,60.1033364 66.8806304,59.8414087 67.0843582,59.6769831 C67.2880861,59.5125575 67.5630179,59.4706142 67.8055894,59.5669529 L131.4212,84.8295344 C131.747494,84.9591845 131.936532,85.3053726 131.871374,85.653941 C131.806215,86.0025095 131.505283,86.2549655 131.154741,86.2549655 Z" id="Path" fill="#FFFFFF"></path>
                            <path d="M67.540536,86.2549655 C67.1903735,86.2549655 66.8893579,86.0114509 66.8230316,85.6741107 C66.7567052,85.3367706 66.9437337,85.0007117 67.268835,84.8730765 L131.751828,59.5666716 C132.126124,59.4208912 132.550059,59.5998862 132.699486,59.9667944 C132.848914,60.3337025 132.667436,60.7500471 132.293815,60.8974846 L67.8115469,86.2038895 C67.725361,86.2377313 67.6333677,86.2549655 67.540536,86.2549655 Z" id="Path" fill="#FFFFFF"></path>
                            <path d="M93.8520482,102.643409 C93.7614899,102.643409 93.6717423,102.627213 93.5874253,102.595856 L67.2665295,92.754316 C66.8958746,92.614949 66.7140985,92.2170526 66.8602502,91.8649964 C67.006402,91.5129403 67.4252881,91.3396766 67.7964829,91.477743 L94.1166712,101.319283 C94.439764,101.439922 94.6267967,101.761596 94.562094,102.085357 C94.4973913,102.409117 94.1992437,102.643409 93.8520482,102.643409 L93.8520482,102.643409 Z" id="Path" fill="#FFFFFF"></path>
                            <path d="M67.5323858,103.505959 C67.1817216,103.505959 66.8816294,103.249802 66.8207692,102.898266 C66.759909,102.54673 66.9558622,102.201476 67.2854382,102.079557 L93.6026196,92.3382326 C93.8454324,92.2470864 94.1175942,92.295144 94.316064,92.4642108 C94.5145339,92.6332776 94.6089767,92.8975127 94.5636363,93.156876 C94.5182958,93.4162393 94.3401021,93.6310886 94.0965197,93.7200815 L67.7793383,103.461406 C67.7002026,103.490801 67.6166256,103.505959 67.5323858,103.505959 L67.5323858,103.505959 Z" id="Path" fill="#FFFFFF"></path>
                            <path d="M130.318709,103.505959 C130.234995,103.505959 130.151963,103.490078 130.073512,103.459269 L105.439407,93.7175637 C105.078667,93.5747578 104.896007,93.1506006 105.031426,92.7701821 C105.166845,92.3897636 105.569062,92.1971406 105.929802,92.3399465 L130.563907,102.081657 C130.879667,102.206578 131.065455,102.551839 131.005214,102.901766 C130.944973,103.251692 130.655959,103.505959 130.318709,103.505959 L130.318709,103.505959 Z" id="Path" fill="#FFFFFF"></path>
                            <path d="M105.683906,102.643409 C105.343237,102.643302 105.05251,102.384898 104.996339,102.032287 C104.940169,101.679676 105.135001,101.33609 105.457114,101.21971 L130.089632,92.33366 C130.325494,92.2473056 130.587357,92.2999766 130.776077,92.4717317 C130.964798,92.6434869 131.051532,92.9080742 131.003441,93.1653201 C130.955351,93.422566 130.779786,93.6331517 130.543216,93.7173489 L105.910679,102.603384 C105.837729,102.629841 105.76109,102.643409 105.683906,102.643409 L105.683906,102.643409 Z" id="Path" fill="#FFFFFF"></path>
                            <path d="M29.0667328,46.5776813 C24.6801055,46.5776813 20.7254138,43.9508008 19.0467246,39.9219501 C17.3680355,35.8930994 18.295938,31.255692 21.3977527,28.172144 C24.4995673,25.0885961 29.1644447,24.1661597 33.2171593,25.8349656 C37.269874,27.5037715 39.912311,31.4351768 39.912311,35.7959732 C39.9056481,41.7478023 35.0538174,46.5710605 29.0667328,46.5776813 Z M29.0667328,26.4518195 C25.2649881,26.4518195 21.8375866,28.7284462 20.3827205,32.220117 C18.9278544,35.7117877 19.7320348,39.7308756 22.4202735,42.4032858 C25.1085123,45.0756961 29.1514066,45.8751431 32.6637609,44.4288459 C36.1761152,42.9825488 38.4662312,39.575331 38.4662312,35.7959732 C38.4603599,30.6377611 34.2554993,26.457659 29.0667328,26.4518195 Z" id="Shape" fill="#FFFFFF"></path>
                            <path d="M100.214765,46.5776813 C95.8281381,46.5776813 91.8734464,43.9508008 90.1947572,39.9219501 C88.5160681,35.8930994 89.4439706,31.255692 92.5457853,28.172144 C95.6475999,25.0885961 100.312477,24.1661597 104.365192,25.8349656 C108.417907,27.5037715 111.060344,31.4351768 111.060344,35.7959732 C111.053803,41.7478529 106.201901,46.5711823 100.214765,46.5776813 L100.214765,46.5776813 Z M100.214765,26.4518195 C96.4130194,26.4518195 92.9856133,28.7284364 91.5307425,32.2201067 C90.0758717,35.711777 90.8800484,39.7308673 93.568286,42.4032806 C96.2565236,45.0756939 100.299419,45.8751437 103.811775,44.4288474 C107.324131,42.9825511 109.614249,39.5753323 109.614249,35.7959732 C109.608252,30.6378185 105.403474,26.4577916 100.214765,26.4518195 L100.214765,26.4518195 Z" id="Shape" fill="#FFFFFF"></path>
                            <path d="M189.583636,46.5776813 C185.197008,46.5776813 181.242317,43.9508008 179.563627,39.9219501 C177.884938,35.8930994 178.812841,31.255692 181.914655,28.172144 C185.01647,25.0885961 189.681347,24.1661597 193.734062,25.8349656 C197.786777,27.5037715 200.429214,31.4351768 200.429214,35.7959732 C200.422676,41.747854 195.570772,46.571185 189.583636,46.5776813 L189.583636,46.5776813 Z M189.583636,26.4518195 C185.781889,26.4518195 182.354481,28.7284332 180.899609,32.2201033 C179.444737,35.7117734 180.248912,39.7308646 182.93715,42.4032789 C185.625387,45.0756932 189.668283,45.8751438 193.180639,44.4288478 C196.692996,42.9825518 198.983114,39.5753328 198.983114,35.7959732 C198.977115,30.6378216 194.772341,26.4577971 189.583636,26.4518195 Z" id="Shape" fill="#FFFFFF"></path>
                            <path d="M282.423142,46.5776813 C278.036514,46.5776813 274.081823,43.9508008 272.403133,39.9219501 C270.724444,35.8930994 271.652347,31.255692 274.754161,28.172144 C277.855976,25.0885961 282.520853,24.1661597 286.573568,25.8349656 C290.626283,27.5037715 293.26872,31.4351768 293.26872,35.7959732 C293.262182,41.747854 288.410278,46.571185 282.423142,46.5776813 L282.423142,46.5776813 Z M282.423142,26.4518195 C277.231939,26.4518195 273.023638,30.6353396 273.023638,35.7959732 C273.023638,40.9566067 277.231939,45.1401268 282.423142,45.1401268 C287.614344,45.1401268 291.822645,40.9566067 291.822645,35.7959732 C291.816648,30.6378109 287.611858,26.4577808 282.423142,26.4518195 L282.423142,26.4518195 Z" id="Shape" fill="#FFFFFF"></path>
                            <path d="M98.0454596,39.6772841 L98.0454596,39.1139003 L98.91035,38.4153027 C100.993432,36.7680427 101.934404,35.891345 101.946649,34.8699888 C101.991781,34.5048931 101.834902,34.1425287 101.520244,33.8850658 C101.205586,33.6276029 100.767241,33.5029363 100.328802,33.5462163 C99.6895046,33.5657671 99.0779069,33.7680992 98.5972731,34.11905 L98.2457199,33.4727988 C98.893787,33.0245368 99.7113581,32.7807507 100.554429,32.7843799 C101.210545,32.7359151 101.860071,32.9242015 102.337654,33.3013063 C102.815237,33.6784111 103.074804,34.2079543 103.050276,34.7551275 C103.050276,36.0062064 101.958888,37.0181127 100.240475,38.3942214 L99.5880958,38.8950903 L99.5880958,38.9154427 L103.251413,38.9154427 L103.251413,39.6772841 L98.0454596,39.6772841 Z" id="Path" fill="#FFFFFF"></path>
                            <polygon id="Path" fill="#FFFFFF" points="28.4805359 33.6472065 28.4567057 33.6472065 27.1010686 34.2947662 26.897427 33.583563 28.600549 32.7768869 29.5004038 32.7768869 29.5004038 39.6772841 28.4805359 39.6772841"></polygon>
                            <path d="M282.689074,39.6772841 L282.689074,37.7987747 L279.386177,37.7987747 L279.386177,37.1829754 L282.557934,32.7768869 L283.597145,32.7768869 L283.597145,37.0660285 L284.59213,37.0660285 L284.59213,37.7987954 L283.597145,37.7987954 L283.597145,39.6772841 L282.689074,39.6772841 Z M282.689074,37.066044 L282.689074,34.7627114 C282.689074,34.4015174 282.700258,34.0403235 282.722625,33.6791296 L282.689074,33.6791296 C282.471015,34.0832516 282.295653,34.3800482 282.098945,34.6990509 L280.359816,37.0445696 L280.359816,37.066044 L282.689074,37.066044 Z" id="Shape" fill="#FFFFFF"></path>
                            <path d="M187.721878,38.526741 C188.28177,38.7919065 188.917675,38.9368739 189.568055,38.947614 C191.018179,38.947614 191.466982,38.2082193 191.453574,37.6542103 C191.441036,36.7194026 190.388778,36.3192869 189.299848,36.3192869 L188.670448,36.3192869 L188.670448,35.6414465 L189.299848,35.6414465 C190.120565,35.6414465 191.159434,35.3028852 191.159434,34.5119534 C191.159434,33.977964 190.73568,33.5055741 189.696798,33.5055741 C189.099154,33.5190412 188.519639,33.6728671 188.030322,33.9479221 L187.735286,33.290839 C188.383441,32.9525858 189.141252,32.7739105 189.914938,32.7768869 C191.556384,32.7768869 192.300217,33.5571161 192.300217,34.3688051 C192.2825,35.1087439 191.654231,35.7496217 190.760698,35.9392209 L190.760698,35.9599782 C191.825616,36.0833737 192.61686,36.8127919 192.620283,37.67426 C192.620283,38.7421987 191.581415,39.6770015 189.58147,39.6770015 C188.82144,39.6848631 188.072811,39.5285937 187.41433,39.2246311 L187.721878,38.526741 Z" id="Path" fill="#FFFFFF"></path>
                            <path d="M223.993421,102.643409 L159.511828,102.643409 C159.318121,102.643409 159.132316,102.567436 158.995345,102.431921 C158.858374,102.296406 158.781585,102.112577 158.781585,101.92093 L158.781585,61.1009499 C158.781585,60.9093032 158.858374,60.7254743 158.995345,60.5899601 C159.132317,60.4544459 159.318122,60.3784758 159.511828,60.3784758 L223.993421,60.3784758 C224.187127,60.3784758 224.372932,60.4544459 224.509903,60.5899601 C224.646875,60.7254743 224.723664,60.9093032 224.723664,61.1009499 L224.723664,101.92093 C224.723664,102.112577 224.646875,102.296406 224.509904,102.431921 C224.372933,102.567436 224.187128,102.643409 223.993421,102.643409 Z M160.242071,101.198451 L223.263183,101.198451 L223.263183,61.8234288 L160.242071,61.8234288 L160.242071,101.198451 Z" id="Shape" fill="#FFFFFF"></path>
                            <path d="M211.863718,69.0039724 L173.376849,69.0039724 C172.983224,69.0039724 172.664128,68.810884 172.664128,68.5726975 C172.664128,68.334511 172.983224,68.1414227 173.376849,68.1414227 L211.863718,68.1414227 C212.257343,68.1414227 212.576439,68.334511 212.576439,68.5726975 C212.576439,68.810884 212.257343,69.0039724 211.863718,69.0039724 Z" id="Path" fill="#FFFFFF"></path>
                            <path d="M211.863753,75.9043696 L173.378681,75.9043696 C173.123618,75.904772 172.887645,75.8226602 172.759921,75.6890579 C172.632197,75.5554555 172.632197,75.390734 172.759921,75.2571317 C172.887645,75.1235293 173.123618,75.0414175 173.378681,75.0418199 L211.863753,75.0418199 C212.257359,75.0418199 212.576439,75.2349091 212.576439,75.4730948 C212.576439,75.7112805 212.257359,75.9043696 211.863753,75.9043696 L211.863753,75.9043696 Z" id="Path" fill="#FFFFFF"></path>
                            <path d="M211.863718,82.8047668 L173.376849,82.8047668 C172.983224,82.8047668 172.664128,82.6116785 172.664128,82.373492 C172.664128,82.1353055 172.983224,81.9422172 173.376849,81.9422172 L211.863718,81.9422172 C212.257343,81.9422172 212.576439,82.1353055 212.576439,82.373492 C212.576439,82.6116785 212.257343,82.8047668 211.863718,82.8047668 Z" id="Path" fill="#FFFFFF"></path>
                            <path d="M211.863753,88.8426144 L173.378681,88.8426144 C173.123618,88.8430168 172.887645,88.760905 172.759921,88.6273027 C172.632197,88.4937004 172.632197,88.3289788 172.759921,88.1953765 C172.887645,88.0617742 173.123618,87.9796624 173.378681,87.9800648 L211.863753,87.9800648 C212.257359,87.9800648 212.576439,88.1731539 212.576439,88.4113396 C212.576439,88.6495253 212.257359,88.8426144 211.863753,88.8426144 L211.863753,88.8426144 Z" id="Path" fill="#FFFFFF"></path>
                            <path d="M211.861886,95.7430117 L173.376813,95.7430117 C172.983208,95.7430117 172.664128,95.5499225 172.664128,95.3117368 C172.664128,95.0735511 172.983208,94.880462 173.376813,94.880462 L211.861886,94.880462 C212.116948,94.8800596 212.352922,94.9621714 212.480646,95.0957737 C212.60837,95.2293761 212.60837,95.3940976 212.480646,95.5276999 C212.352922,95.6613023 212.116948,95.7434141 211.861886,95.7430117 Z" id="Path" fill="#FFFFFF"></path>
                            <path d="M13.4487135,62.1035751 C13.6907031,62.0955242 13.8825429,61.904814 13.8825429,61.6723003 C13.8825429,61.4397866 13.6907031,61.2490764 13.4487135,61.2410255 C13.2067239,61.2490764 13.014884,61.4397866 13.014884,61.6723003 C13.014884,61.904814 13.2067239,62.0955242 13.4487135,62.1035751 L13.4487135,62.1035751 Z" id="Path" fill="#FFFFFF"></path>
                            <path d="M13.4487135,69.866522 C13.6907031,69.8584711 13.8825429,69.6677609 13.8825429,69.4352472 C13.8825429,69.2027335 13.6907031,69.0120233 13.4487135,69.0039724 C13.2067239,69.0120233 13.014884,69.2027335 13.014884,69.4352472 C13.014884,69.6677609 13.2067239,69.8584711 13.4487135,69.866522 L13.4487135,69.866522 Z" id="Path" fill="#FFFFFF"></path>
                            <path d="M13.4487135,78.4920186 C13.6907031,78.4839677 13.8825429,78.2932575 13.8825429,78.0607437 C13.8825429,77.82823 13.6907031,77.6375198 13.4487135,77.6294689 C13.2067239,77.6375198 13.014884,77.82823 13.014884,78.0607437 C13.014884,78.2932575 13.2067239,78.4839677 13.4487135,78.4920186 L13.4487135,78.4920186 Z" id="Path" fill="#FFFFFF"></path>
                            <path d="M13.4487135,86.2549655 C13.6907031,86.2469146 13.8825429,86.0562044 13.8825429,85.8236906 C13.8825429,85.5911769 13.6907031,85.4004667 13.4487135,85.3924158 C13.2067239,85.4004667 13.014884,85.5911769 13.014884,85.8236906 C13.014884,86.0562044 13.2067239,86.2469146 13.4487135,86.2549655 L13.4487135,86.2549655 Z" id="Path" fill="#FFFFFF"></path>
                            <path d="M13.4487135,94.880462 C13.6907031,94.8724111 13.8825429,94.6817009 13.8825429,94.4491872 C13.8825429,94.2166734 13.6907031,94.0259632 13.4487135,94.0179123 C13.2067239,94.0259632 13.014884,94.2166734 13.014884,94.4491872 C13.014884,94.6817009 13.2067239,94.8724111 13.4487135,94.880462 L13.4487135,94.880462 Z" id="Path" fill="#FFFFFF"></path>
                            <path d="M13.4487135,102.643409 C13.6907031,102.635358 13.8825429,102.444648 13.8825429,102.212134 C13.8825429,101.97962 13.6907031,101.78891 13.4487135,101.780859 C13.2067239,101.78891 13.014884,101.97962 13.014884,102.212134 C13.014884,102.444648 13.2067239,102.635358 13.4487135,102.643409 Z" id="Path" fill="#FFFFFF"></path>
                            <path d="M42.6684174,62.1035751 L19.8030405,62.1035751 C19.4084088,62.1035751 19.0884965,61.9104868 19.0884965,61.6723003 C19.0884965,61.4341138 19.4084088,61.2410255 19.8030405,61.2410255 L42.6684028,61.2410255 C43.0630345,61.2410255 43.3829467,61.4341138 43.3829467,61.6723003 C43.3829467,61.9104868 43.0630345,62.1035751 42.6684028,62.1035751 L42.6684174,62.1035751 Z" id="Path" fill="#FFFFFF"></path>
                            <path d="M42.6666579,69.866522 L19.8048,69.866522 C19.5491129,69.8669244 19.3125615,69.7848126 19.1845244,69.6512103 C19.0564873,69.517608 19.0564873,69.3528864 19.1845244,69.2192841 C19.3125615,69.0856818 19.5491129,69.00357 19.8048,69.0039724 L42.6666433,69.0039724 C42.9223304,69.00357 43.1588818,69.0856818 43.2869189,69.2192841 C43.414956,69.3528864 43.414956,69.517608 43.2869189,69.6512103 C43.1588818,69.7848126 42.9223304,69.8669244 42.6666433,69.866522 L42.6666579,69.866522 Z" id="Path" fill="#FFFFFF"></path>
                            <path d="M42.6666027,78.4920186 L19.8029831,78.4920186 C19.4083831,78.4920186 19.0884965,78.2989294 19.0884965,78.0607437 C19.0884965,77.822558 19.4083831,77.6294689 19.8029831,77.6294689 L42.6665881,77.6294689 C42.9222949,77.6290665 43.1588645,77.7111783 43.2869115,77.8447806 C43.4149584,77.978383 43.4149584,78.1431045 43.2869115,78.2767068 C43.1588645,78.4103092 42.9222949,78.492421 42.6665881,78.4920186 L42.6666027,78.4920186 Z" id="Path" fill="#FFFFFF"></path>
                            <path d="M42.6666027,86.2549655 L19.8029831,86.2549655 C19.4083831,86.2549655 19.0884965,86.0618763 19.0884965,85.8236906 C19.0884965,85.5855049 19.4083831,85.3924158 19.8029831,85.3924158 L42.6665881,85.3924158 C42.9222949,85.3920134 43.1588645,85.4741252 43.2869115,85.6077275 C43.4149584,85.7413299 43.4149584,85.9060514 43.2869115,86.0396537 C43.1588645,86.1732561 42.9222949,86.2553679 42.6665881,86.2549655 L42.6666027,86.2549655 Z" id="Path" fill="#FFFFFF"></path>
                            <path d="M42.6666027,94.880462 L19.8029831,94.880462 C19.4083831,94.880462 19.0884965,94.6873729 19.0884965,94.4491872 C19.0884965,94.2110015 19.4083831,94.0179123 19.8029831,94.0179123 L42.6665881,94.0179123 C42.9222949,94.0175099 43.1588645,94.0996217 43.2869115,94.2332241 C43.4149584,94.3668264 43.4149584,94.5315479 43.2869115,94.6651503 C43.1588645,94.7987526 42.9222949,94.8808644 42.6665881,94.880462 L42.6666027,94.880462 Z" id="Path" fill="#FFFFFF"></path>
                            <path d="M42.6666579,102.643409 L19.8048,102.643409 C19.5491129,102.643811 19.3125615,102.5617 19.1845244,102.428097 C19.0564873,102.294495 19.0564873,102.129773 19.1845244,101.996171 C19.3125615,101.862569 19.5491129,101.780457 19.8048,101.780859 L42.6666433,101.780859 C42.9223304,101.780457 43.1588818,101.862569 43.2869189,101.996171 C43.414956,102.129773 43.414956,102.294495 43.2869189,102.428097 C43.1588818,102.5617 42.9223304,102.643811 42.6666433,102.643409 L42.6666579,102.643409 Z" id="Path" fill="#FFFFFF"></path>
                            <path d="M289.514347,105.231058 L274.464668,105.231058 C272.39194,105.228879 270.712086,103.505559 270.709587,101.378814 L270.709587,61.6423833 C270.712137,59.5157743 272.392072,57.7926868 274.464668,57.7908269 L276.290317,57.7908269 C276.522694,57.7908269 276.739922,57.9091677 276.869957,58.1067744 C276.999992,58.304381 277.025838,58.5553673 276.938923,58.7764946 C276.844101,59.0146876 276.87089,59.2856642 277.010399,59.4994673 C277.149907,59.7132703 277.383878,59.8419213 277.634639,59.8427115 L286.214656,59.8427115 C286.465179,59.8422576 286.699109,59.7141114 286.838863,59.5007728 C286.978617,59.2874341 287.005927,59.0167889 286.911736,58.7785969 C286.823854,58.5574757 286.849028,58.305974 286.978879,58.107797 C287.10873,57.9096201 287.326214,57.7908269 287.55895,57.7908269 L289.514323,57.7908269 C291.586683,57.7929786 293.266245,59.5159972 293.26872,61.6423637 L293.26872,101.378794 C293.266298,103.505291 291.586834,105.228546 289.514347,105.231058 L289.514347,105.231058 Z M274.464668,59.2255395 C273.164094,59.2268539 272.109877,60.3079156 272.107841,61.6423833 L272.107841,101.378814 C272.109577,102.713523 273.163859,103.794966 274.464668,103.79636 L289.514347,103.79636 C290.815022,103.794906 291.869074,102.713385 291.87049,101.378814 L291.87049,61.6423833 C291.868762,60.3080583 290.814782,59.2269249 289.514347,59.2255395 L288.359828,59.2255395 C288.27913,60.3805328 287.343202,61.2757514 286.214656,61.2774045 L277.634639,61.2774045 C276.506233,61.2757043 275.570526,60.380413 275.490147,59.2255395 L274.464668,59.2255395 Z" id="Shape" fill="#FFFFFF"></path>
                            <path d="M259.574645,83.6673165 L239.329258,83.6673165 C238.929928,83.6673165 238.606207,83.3421109 238.606207,82.9409496 C238.606207,82.5397882 238.929928,82.2145826 239.329258,82.2145826 L257.829159,82.2145826 L253.640554,78.0067723 C253.358215,77.7231397 253.358214,77.2632794 253.640552,76.9796455 C253.922889,76.6960115 254.38065,76.6960104 254.662989,76.9796429 L260.085863,82.4273873 C260.292662,82.6351033 260.354535,82.9475141 260.24263,83.2189307 C260.130725,83.4903472 259.867081,83.6673165 259.574645,83.6673165 L259.574645,83.6673165 Z" id="Path" fill="#FFFFFF"></path>
                            <path d="M254.127577,87.1175151 C253.815668,87.1175151 253.534495,86.9306601 253.415137,86.6441942 C253.295779,86.3577282 253.361735,86.0279962 253.582257,85.8087154 L258.98117,80.4416622 C259.282339,80.1422707 259.770631,80.1422696 260.071802,80.4416597 C260.372972,80.7410498 260.372973,81.2264583 260.071804,81.5258499 L254.67288,86.8928873 C254.52842,87.0369101 254.33217,87.1177515 254.127577,87.1175151 L254.127577,87.1175151 Z" id="Path" fill="#FFFFFF"></path>
                            <path d="M295.004038,142.320693 L271.067061,142.320693 C269.433551,133.187978 269.433551,123.851819 271.067061,114.719104 L295.004038,114.719104 C292.307347,123.734817 292.307347,133.30498 295.004038,142.320693 L295.004038,142.320693 Z" id="Path" fill="#1BBAB0"></path>
                            <path d="M163.987539,138.870494 L187.924515,138.870494 C189.558025,129.737779 189.558025,120.40162 187.924515,111.268905 L163.987539,111.268905 C166.684233,120.284617 166.684233,129.854782 163.987539,138.870494 L163.987539,138.870494 Z" id="Path" fill="#6C63FF"></path>
                            <path d="M198.693896,146.633441 L222.630873,146.633441 C224.264382,137.500726 224.264382,128.164567 222.630873,119.031852 L198.693896,119.031852 C201.390585,128.047565 201.390585,137.617729 198.693896,146.633441 Z" id="Path" fill="#6C63FF"></path>
                            <path d="M183.509882,118.169303 L169.627304,118.169303 C169.387723,118.169303 169.193492,117.976408 169.193492,117.738028 C169.193492,117.499648 169.387738,117.306753 169.627304,117.306753 L183.509882,117.306753 C183.749463,117.306753 183.943694,117.499648 183.943694,117.738028 C183.943694,117.976408 183.749444,118.169303 183.509882,118.169303 Z" id="Path" fill="#FFFFFF"></path>
                            <path d="M183.509882,125.0697 L169.627304,125.0697 C169.387723,125.0697 169.193492,124.876805 169.193492,124.638424 C169.193492,124.400043 169.387738,124.20715 169.627304,124.20715 L183.509882,124.20715 C183.749463,124.20715 183.943694,124.400046 183.943694,124.638424 C183.943694,124.876802 183.749444,125.0697 183.509882,125.0697 Z" id="Path" fill="#FFFFFF"></path>
                            <path d="M219.951558,128.519899 L206.068979,128.519899 C205.829398,128.519899 205.635167,128.327006 205.635167,128.088625 C205.635167,127.850244 205.829418,127.657349 206.068979,127.657349 L219.951558,127.657349 C220.191138,127.657349 220.385369,127.850244 220.385369,128.088625 C220.385369,128.327006 220.191138,128.519899 219.951558,128.519899 Z" id="Path" fill="#FFFFFF"></path>
                            <path d="M219.951558,136.282845 L206.068979,136.282845 C205.829398,136.282845 205.635167,136.089951 205.635167,135.851571 C205.635167,135.61319 205.829418,135.420296 206.068979,135.420296 L219.951558,135.420296 C220.191138,135.420296 220.385369,135.61319 220.385369,135.851571 C220.385369,136.089951 220.191138,136.282845 219.951558,136.282845 Z" id="Path" fill="#FFFFFF"></path>
                            <path d="M290.231931,123.344601 L276.349353,123.344601 C276.109767,123.344601 275.915541,123.151706 275.915541,122.913326 C275.915541,122.674946 276.109786,122.482051 276.349353,122.482051 L290.231931,122.482051 C290.471517,122.482051 290.665743,122.674946 290.665743,122.913326 C290.665743,123.151706 290.471517,123.344601 290.231931,123.344601 Z" id="Path" fill="#FFFFFF"></path>
                            <path d="M290.231931,128.519899 L276.349353,128.519899 C276.109767,128.519899 275.915541,128.327006 275.915541,128.088625 C275.915541,127.850244 276.109786,127.657349 276.349353,127.657349 L290.231931,127.657349 C290.471517,127.657349 290.665743,127.850244 290.665743,128.088625 C290.665743,128.327006 290.471517,128.519899 290.231931,128.519899 Z" id="Path" fill="#FFFFFF"></path>
                            <path d="M183.509882,131.107547 L169.627304,131.107547 C169.387723,131.107547 169.193492,130.914653 169.193492,130.676273 C169.193492,130.437893 169.387738,130.244998 169.627304,130.244998 L183.509882,130.244998 C183.749463,130.244998 183.943694,130.437893 183.943694,130.676273 C183.943694,130.914653 183.749444,131.107547 183.509882,131.107547 Z" id="Path" fill="#FFFFFF"></path>
                            <path d="M44.2506056,138.870494 L68.1875857,138.870494 C69.8210911,129.737779 69.8210911,120.401621 68.1875857,111.268905 L44.2506056,111.268905 C46.9472999,120.284617 46.9472999,129.854782 44.2506056,138.870494 L44.2506056,138.870494 Z" id="Path" fill="#6C63FF"></path>
                            <path d="M63.7729494,118.169303 L49.890371,118.169303 C49.6507903,118.169303 49.4565592,117.976407 49.4565592,117.738026 C49.4565592,117.499645 49.6508094,117.306753 49.890371,117.306753 L63.7729494,117.306753 C64.0125348,117.306753 64.2067611,117.499645 64.2067611,117.738026 C64.2067611,117.976407 64.0125348,118.169303 63.7729494,118.169303 Z" id="Path" fill="#FFFFFF"></path>
                            <path d="M63.7729494,125.0697 L49.890371,125.0697 C49.6507903,125.0697 49.4565592,124.876808 49.4565592,124.638427 C49.4565592,124.400046 49.6508094,124.20715 49.890371,124.20715 L63.7729494,124.20715 C64.0125348,124.20715 64.2067611,124.400046 64.2067611,124.638427 C64.2067611,124.876808 64.0125348,125.0697 63.7729494,125.0697 Z" id="Path" fill="#FFFFFF"></path>
                            <path d="M63.7729494,131.970097 L49.890371,131.970097 C49.6507903,131.970097 49.4565592,131.777202 49.4565592,131.538821 C49.4565592,131.30044 49.6508094,131.107547 49.890371,131.107547 L63.7729494,131.107547 C64.0125348,131.107547 64.2067611,131.30044 64.2067611,131.538821 C64.2067611,131.777202 64.0125348,131.970097 63.7729494,131.970097 Z" id="Path" fill="#FFFFFF"></path>
                        </g>
                        <g id="undraw_design_notes_8dmv" transform="translate(446.500000, 148.500000) scale(-1, 1) translate(-446.500000, -148.500000) translate(405.000000, 32.000000)">
                            <ellipse id="Oval" fill="#E6E6E6" cx="41.5" cy="224.565611" rx="41.5" ry="8.43438914"></ellipse>
                            <ellipse id="Oval" fill="#2F2E41" cx="23.9423077" cy="14.760181" rx="14.3653846" ry="13.7058824"></ellipse>
                            <path d="M65.0091822,98.0497738 L68.6111466,103.16222 C68.6111466,103.16222 85.9005768,106.813965 79.41704,112.291584 C72.9335031,117.769202 63.5683938,107.179142 63.5683938,107.179142 L58.525641,100.605986 L65.0091822,98.0497738 Z" id="Path" fill="#EAB16F"></path>
                            <path d="M46.4778807,41.1176471 C46.4778807,41.1176471 51.1032737,41.1176471 52.1706728,47.579617 C53.2380718,54.041587 54.3054708,75.5814884 54.3054708,75.5814884 C54.3054708,75.5814884 69.2490489,95.3263983 66.758454,97.8393854 C64.267859,100.352373 61.4214588,105.019355 59.6424745,104.30136 C57.8634902,103.583364 42.5641026,82.4024583 42.5641026,82.4024583 L46.4778807,41.1176471 Z" id="Path" fill="#E6E6E6"></path>
                            <path d="M31.8742708,22.1402715 C31.8742708,22.1402715 32.2207342,36.4210638 36.3783281,37.1534155 C40.5359221,37.8857672 39.150056,42.6460269 39.150056,42.6460269 C39.150056,42.6460269 25.6378841,51.068032 16.6297653,42.6460269 L14.8974359,38.2519386 C14.8974359,38.2519386 21.1338268,33.4916745 18.3620989,26.9005356 L31.8742708,22.1402715 Z" id="Path" fill="#EAB16F"></path>
                            <path d="M56.0199831,108.59276 C56.0199831,108.59276 77.5215508,148.307549 69.5040162,160.58303 C61.4864816,172.85851 49.460184,198.131557 47.6380179,198.131557 C45.8158517,198.131557 35.611716,193.076946 36.3405859,189.827556 C37.0694559,186.578167 48.0024528,162.388247 50.9179152,160.221985 C53.8333776,158.055722 52.3756508,152.279025 52.0112158,151.917984 C51.6467808,151.556943 39.6204833,132.42163 39.6204833,132.42163 C39.6204833,132.42163 39.9849182,162.749288 38.5271827,167.442854 C37.0694472,172.13642 38.8916177,205.713471 37.0694515,207.157643 C35.2472854,208.601815 26.8653201,211.129136 25.4075846,208.96286 C23.9498491,206.796585 19.5766511,173.941637 22.4921179,166.359723 L17.025641,114.369457 L56.0199831,108.59276 Z" id="Path" fill="#2F2E41"></path>
                            <path d="M37.0406037,204.533937 L46.0540154,221.551913 C46.0540154,221.551913 59.0333299,231.17077 50.0199311,232.650596 C41.0065323,234.130423 35.5984681,230.430859 35.5984681,230.430859 L27.6666667,224.511562 L27.6666667,207.493585 L37.0406037,204.533937 Z" id="Path" fill="#2F2E41"></path>
                            <path d="M50.0128205,194.998765 L45.1590169,206.136862 C45.1590169,206.136862 43.2921713,210.807677 45.1590169,211.885558 C47.0258624,212.963439 52.253028,219.430708 48.8927079,220.149307 C48.2167212,220.276751 47.5297366,220.342469 46.8409063,220.345586 C41.1867508,220.437155 35.738766,218.303735 31.7576526,214.439013 L28.7307692,211.526241 C28.7307692,211.526241 39.0992471,188.550043 38.9554995,188.7204 C38.8117519,188.890756 50.0128205,194.998765 50.0128205,194.998765 Z" id="Path" fill="#2F2E41"></path>
                            <ellipse id="Oval" fill="#EAB16F" cx="23.9423077" cy="18.4502262" rx="12.2371795" ry="12.1244344"></ellipse>
                            <path d="M15.6870128,35.8686172 L19.5626237,39.695581 C19.5626237,39.695581 31.3740036,44.0692545 36.9105863,39.695581 C36.9105863,39.695581 34.8804985,35.5041426 34.8804985,35.8686172 C34.8804985,36.2330918 50.9365923,38.6021615 52.412995,45.1626739 C53.8893977,51.7231864 51.3056776,63.0218512 51.3056776,63.0218512 C51.3056776,63.0218512 61.6406328,111.132277 57.5804704,112.225696 C53.520308,113.319116 15.502435,122.430938 15.8715379,115.505955 C16.2406408,108.580972 12.9186973,80.1520793 12.9186973,80.1520793 L0,55.7323896 C0,55.7323896 1.84552756,47.7139875 6.27479283,45.1626739 C10.7040581,42.6113604 15.6870128,35.8686172 15.6870128,35.8686172 Z" id="Path" fill="#E6E6E6"></path>
                            <path d="M31.6962212,106.484163 L36.426044,109.249911 C36.426044,109.249911 54.6176715,121.00434 45.1580257,123.078652 C35.69838,125.152964 30.2408887,114.781407 30.2408887,114.781407 L26.6025641,110.632787 L31.6962212,106.484163 Z" id="Path" fill="#EAB16F"></path>
                            <path d="M4.90282014,53.7692308 L1.61248939,57.0038841 C1.61248939,57.0038841 -0.581060093,87.193965 3.80604322,93.3038601 C8.19314654,99.4137552 28.3007118,115.946421 29.3974887,114.868207 C30.4942656,113.789994 37.4405165,108.398901 35.9781458,107.68009 C34.5157751,106.96128 15.0725445,86.9893117 15.0725445,86.9893117 L16.6017681,59.1603197 L4.90282014,53.7692308 Z" id="Path" fill="#000000" opacity="0.1"></path>
                            <path d="M3.83871479,52.7149321 L0.548388449,55.9495814 C0.548388449,55.9495814 -1.64516535,86.1396642 2.74194224,92.249564 C7.12904983,98.3594637 27.2366103,114.892126 28.3333872,113.813908 C29.4301641,112.73569 36.3764106,107.344605 34.9140443,106.625791 C33.451678,105.906976 14.0084389,85.9349938 14.0084389,85.9349938 L15.5376626,58.106 L3.83871479,52.7149321 Z" id="Path" fill="#E6E6E6"></path>
                            <path d="M27.4418669,1.10340505 C27.4418669,1.10340505 31.6078738,-0.487246799 37.2887914,2.89289176 L34.2589698,3.68821768 C34.2589698,3.68821768 38.8037022,4.08587839 39.3717949,10.4484903 L37.2887914,10.4484903 C37.2887914,10.4484903 38.6143395,16.0157718 37.2887914,17.6064236 L36.4366547,15.9163476 L33.9749214,21.0859729 L33.4068331,18.5011647 L32.2706478,18.8988299 L31.5131924,14.7233745 C31.5131924,14.7233745 29.6195518,17.7058478 28.104641,17.9046782 L28.104641,15.31987 C28.104641,15.31987 23.9386384,20.2906559 22.6130904,20.0918256 L24.5067267,17.3081871 L21.855635,17.9046782 L22.9918159,15.9163656 L16.1747173,17.9046692 L17.6896281,15.9163566 L12.9555329,17.5070084 L10.6831667,18.5011647 C10.6831667,18.5011647 7.4639652,10.7467358 12.0087105,5.37828471 C16.5534557,0.00983359186 23.181183,-1.18315755 27.4418669,1.10340505 Z" id="Path" fill="#2F2E41"></path>
                        </g>
                        <g id="undraw_redesign_feedback_48ti" transform="translate(80.000000, 148.500000) scale(-1, 1) translate(-80.000000, -148.500000) translate(0.000000, 32.000000)">
                            <path d="M59.6229417,220.348416 C59.5634345,220.255397 58.1602854,218.014248 57.6738318,213.360453 C57.2276442,209.090835 57.5145512,201.894068 61.4163141,191.855164 C68.8080811,172.837119 59.7128392,157.492345 59.6199041,157.339512 L60.0686238,157.090498 C61.8199033,160.296269 63.0849129,163.724312 63.8255407,167.271347 C65.6574469,175.530713 64.9903793,184.118457 61.9025151,192.028138 C54.5234037,211.013709 60.0093693,220.001312 60.0655863,220.08997 L59.6229417,220.348416 Z" id="Path" fill="#E6E6E6"></path>
                            <ellipse id="Oval" fill="#02D7A2" cx="56.9934641" cy="153.400452" rx="3.66013072" ry="3.69004525"></ellipse>
                            <ellipse id="Oval" fill="#E6E6E6" cx="67.4509804" cy="164.997738" rx="3.66013072" ry="3.69004525"></ellipse>
                            <ellipse id="Oval" fill="#E6E6E6" cx="60.130719" cy="173.432127" rx="3.66013072" ry="3.69004525"></ellipse>
                            <ellipse id="Oval" fill="#02D7A2" cx="68.496732" cy="179.757919" rx="3.66013072" ry="3.69004525"></ellipse>
                            <ellipse id="Oval" fill="#E6E6E6" cx="58.0392157" cy="191.355204" rx="3.66013072" ry="3.69004525"></ellipse>
                            <path d="M61.1958357,221.402715 C61.1958357,221.402715 57.8068279,213.570779 67.9738562,207.696833 L61.1958357,221.402715 Z" id="Path" fill="#E6E6E6"></path>
                            <path d="M57.5163399,221.402715 C57.5163399,221.402715 56.0805012,212.895898 44.9673203,212.968792 L57.5163399,221.402715 Z" id="Path" fill="#E6E6E6"></path>
                            <ellipse id="Oval" fill="#3F3D56" cx="79.4771242" cy="225.09276" rx="79.4771242" ry="7.90723982"></ellipse>
                            <path d="M93.6133233,76.9638009 L89.4870744,93.1193877 C89.4870744,93.1193877 87.42395,106.168149 90.960725,106.478827 C94.4975,106.789505 93.6133142,93.4300654 93.6133142,93.4300654 L100.392157,82.2454133 L93.6133233,76.9638009 Z" id="Path" fill="#FBBEBE"></path>
                            <path d="M125.900099,85.0737883 L125.900099,80.0082979 L96.720955,78.0180995 L92.1073891,107.8685 C92.1073891,107.8685 91.4929757,137.628258 93.6434108,152.824729 C95.793846,168.021201 100.094745,203.479638 100.094745,203.479638 L119.75596,203.479638 L114.840648,129.713428 L136.959518,203.479638 L160,200.630303 L133.273056,113.567174 C133.273056,113.567174 133.580265,97.4209247 125.900099,85.0737883 Z" id="Path" fill="#2F2E41"></path>
                            <path d="M102.252586,200.316742 L101.023621,209.882574 L99.1801777,216.671229 C99.1801777,216.671229 90.5774267,218.522681 95.8005261,221.608436 C101.023625,224.69419 105.939476,221.608436 105.939476,221.608436 L109.933611,216.054078 L109.933611,225.61991 L116.078431,225.61991 L116.078431,212.042609 L111.469819,201.859607 L102.252586,200.316742 Z" id="Path" fill="#2F2E41"></path>
                            <path d="M139.899646,200.316742 L138.670681,209.882574 L136.827234,216.671229 C136.827234,216.671229 128.224489,218.522681 133.447583,221.608436 C138.670677,224.69419 143.586536,221.608436 143.586536,221.608436 L147.58067,216.054078 L147.58067,225.61991 L153.72549,225.61991 L153.72549,212.042609 L149.116874,201.859626 L139.899646,200.316742 Z" id="Path" fill="#2F2E41"></path>
                            <ellipse id="Oval" fill="#FBBEBE" cx="113.986928" cy="15.8144796" rx="10.4575163" ry="10.5429864"></ellipse>
                            <polygon id="Path" fill="#FBBEBE" points="119.843021 21.0859729 128.627451 31.7631899 117.96092 35.8461538 112.941176 25.796638"></polygon>
                            <path d="M115.039512,31.3135717 L116.49572,30.9030397 C116.49572,30.9030397 124.074106,26.0627708 126.182182,26.371644 C128.290259,26.6805171 134.915625,33.4756648 133.711011,42.7417834 C132.506398,52.007902 134.915625,86.6013959 130.097175,85.3659175 C125.278724,84.1304392 123.772955,83.2038245 123.772955,83.2038245 L118.051042,80.4239851 L112.630284,81.9683271 C112.630284,81.9683271 109.317599,79.806234 106.60722,80.4239851 C103.896842,81.0417362 95.1633987,77.9530236 95.1633987,77.9530236 L115.039512,31.3135717 Z" id="Path" fill="#E6E6E6"></path>
                            <path d="M117.250018,32.7307044 C117.250018,32.7307044 110.430418,29.3673055 107.413341,34.3937312 C104.396263,39.4201569 95.9483676,66.1230778 95.9483676,66.1230778 L92.0261438,78.3750067 L101.680856,84.3438914 L120.688574,47.9022641 C120.688574,47.9022641 123.466193,37.0365623 117.250018,32.7307044 Z" id="Path" fill="#E6E6E6"></path>
                            <path d="M112.519869,18.0527287 C111.86718,17.0303278 112.197029,15.640155 111.739298,14.5134214 C111.020527,12.7440914 108.786628,12.329599 106.912066,12.1681672 C105.670223,12.0059348 104.412886,12.0093593 103.171915,12.1783541 C102.059933,12.3664792 101.099361,13.0752646 100.577964,14.0923759 C100.300617,14.6584487 100.370603,12.8848474 100.548289,10.6080872 C100.91741,5.84108231 104.268956,1.86214261 108.841556,0.762357995 C108.868038,0.756026963 108.894282,0.749807787 108.92029,0.743700466 C111.202625,0.207862194 113.555955,-0.186467449 115.882234,0.0916649098 C118.208512,0.369797269 120.52724,1.39178113 121.979032,3.26242366 C122.642569,4.117391 123.111756,5.12559264 123.852454,5.91218579 C125.153862,7.29424269 127.083163,7.79711389 128.855383,8.43838733 C130.887179,9.10518329 132.756894,10.2029966 134.341094,11.6593517 C135.930318,13.137404 136.883075,15.1933727 136.992812,17.3815371 C137.030255,19.9065497 135.451995,22.5123813 132.90886,23.0101999 C132.466635,23.0886875 132.048825,23.2721866 131.689342,23.5458032 C129.261051,25.4619631 132.031094,27.4678439 132.011899,29.625008 C131.995884,31.4250041 130.026945,32.5981321 128.26008,32.6820718 C124.853258,32.7444376 121.880737,30.3411518 121.169967,26.9497092 C120.903614,25.4725094 121.109293,23.9553149 121.282573,22.4638392 C121.480923,20.7565603 117.868249,16.7364813 120.254683,19.6830908 C120.720431,20.2431394 121.034879,20.9169483 121.167084,21.6382148 C121.564273,23.9921889 119.45942,24.7839882 118.132082,26.0883133 C116.645304,27.5934398 116.128939,29.8280441 116.800739,31.8497936 C114.542758,29.7679934 114.058849,26.3461014 115.64834,23.7007633 C116.075915,23.0334067 116.626804,22.4528182 117.03225,21.7713198 C117.664944,20.7079078 117.839426,18.3948968 116.068506,18.4584149 C114.804517,18.50375 113.491489,19.5747266 112.519869,18.0527287 Z" id="Path" fill="#2F2E41"></path>
                            <polygon id="Path" fill="#000000" opacity="0.2" points="117.124183 58.204226 102.48366 81.1809955 116.340299 55.8778281"></polygon>
                            <rect id="Rectangle" fill="#9A29F3" x="2.09150327" y="201.371041" width="23.0065359" height="23.1945701"></rect>
                            <path d="M20.9005511,205.951863 L7.05091955,205.951863 C6.81190746,205.951863 6.61813733,205.757545 6.61813733,205.517405 C6.61813733,205.277265 6.81192653,205.082949 7.05091955,205.082949 L20.9005511,205.082949 C21.139568,205.082949 21.3333333,205.277265 21.3333333,205.517405 C21.3333333,205.757545 21.139568,205.951863 20.9005511,205.951863 Z" id="Path-Copy" fill="#FFFFFF"></path>
                            <path d="M20.9005511,212.903175 L7.05091955,212.903175 C6.81190746,212.903175 6.61813733,212.708859 6.61813733,212.468719 C6.61813733,212.228579 6.81192653,212.034261 7.05091955,212.034261 L20.9005511,212.034261 C21.139568,212.034261 21.3333333,212.228579 21.3333333,212.468719 C21.3333333,212.708859 21.139568,212.903175 20.9005511,212.903175 Z" id="Path-Copy-2" fill="#FFFFFF"></path>
                            <path d="M20.9005511,219.854486 L7.05091955,219.854486 C6.81190746,219.854486 6.61813733,219.660168 6.61813733,219.420028 C6.61813733,219.179888 6.81192653,218.985572 7.05091955,218.985572 L20.9005511,218.985572 C21.139568,218.985572 21.3333333,219.179888 21.3333333,219.420028 C21.3333333,219.660168 21.139568,219.854486 20.9005511,219.854486 Z" id="Path-Copy-3" fill="#FFFFFF"></path>
                            <rect id="Rectangle" fill="#E6E6E6" x="16.7320261" y="214.022624" width="11.503268" height="11.5972851"></rect>
                        </g>
                    </g>
                </g>
            </g>
        </g>
    </g>
</svg>