<?xml version="1.0" encoding="UTF-8"?>
<svg width="488px" height="256px" viewBox="0 0 488 256" version="1.1" xmlns="http://www.w3.org/2000/svg" xmlns:xlink="http://www.w3.org/1999/xlink">
    <!-- Generator: sketchtool 55.2 (78181) - https://sketchapp.com -->
    <title>B9008134-F4E3-4C94-839A-2E9D9B4243B3</title>
    <desc>Created with sketchtool.</desc>
    <g id="Page-5" stroke="none" stroke-width="1" fill="none" fill-rule="evenodd">
        <g id="2.-Approach" transform="translate(-247.000000, -2246.000000)" fill-rule="nonzero">
            <g id="Value-prop" transform="translate(0.000000, 2246.000000)">
                <g id="development-image" transform="translate(247.000000, 0.000000)">
                    <path d="M429.116661,113.924958 L382.873436,135.709067 L423.800698,105.248411 C417.148884,94.9141447 409.67625,85.1267083 401.454458,75.9799619 L200.903246,125.595647 L382.057521,56.8135692 C373.7794,49.5437224 364.988163,42.8741042 355.751449,36.8560311 L50.1586096,85.8496439 C17.7123904,126.234396 0.0249835251,176.399228 0,228.108949 L460,228.108949 C459.981368,188.005572 449.328098,148.617574 429.116661,113.924958 Z" id="Path" fill="#F9F9F9"></path>
                    <path d="M330,23.1394741 C298.567947,7.86549198 264.047837,-0.0491065061 229.076464,0 C157.900934,0 94.2662939,32.1550788 52,82.6770428 C124.377017,66.8770726 250.39118,39.526424 330,23.1394741 Z" id="Path" fill="#F9F9F9"></path>
                    <path d="M460,227.678983 C460,234.742793 393.738141,256 312,256 C230.261859,256 164,234.742793 164,227.678983 C164,220.615173 230.261855,230.419726 312,230.419726 C393.738145,230.419726 460,220.615173 460,227.678983 Z" id="Path" fill="#3F3D56"></path>
                    <path d="M460,227.678983 C460,234.742793 393.738141,256 312,256 C230.261859,256 164,234.742793 164,227.678983 C164,220.615173 230.261855,230.419726 312,230.419726 C393.738145,230.419726 460,220.615173 460,227.678983 Z" id="Path" fill="#000000" opacity="0.1"></path>
                    <ellipse id="Oval" fill="#3F3D56" opacity="0.593703497" cx="312" cy="228.108949" rx="148" ry="12.9494163"></ellipse>
                    <path d="M270,122.945895 C270,122.945895 276.019984,132.965541 273.870032,135.678433 C271.720081,138.391325 290,138.459144 290,138.459144 C290,138.459144 287.254156,123.883581 288.062319,120.529183 L270,122.945895 Z" id="Path" fill="#FFB8B8"></path>
                    <path d="M270,122.945895 C270,122.945895 276.019984,132.965541 273.870032,135.678433 C271.720081,138.391325 290,138.459144 290,138.459144 C290,138.459144 287.254156,123.883581 288.062319,120.529183 L270,122.945895 Z" id="Path" fill="#000000" opacity="0.1"></path>
                    <ellipse id="Oval" fill="#2F2E41" cx="280" cy="107.579767" rx="19" ry="18.92607"></ellipse>
                    <polygon id="Path" fill="#FFB8B8" points="324 208.18677 324 219.143969 335 216.861219 334.083333 209.09987"></polygon>
                    <path d="M362.897305,210.178988 L394,215.353221 L386.108271,227.11284 C386.108271,227.11284 364.289963,219.586684 358.719331,219.586684 C353.148699,219.586684 362.897305,210.178988 362.897305,210.178988 Z" id="Path" fill="#FFB8B8"></path>
                    <path d="M292.672727,188.484391 C292.672727,188.484391 316.309091,162.045624 323.872727,163.413146 C331.436364,164.780669 334.745455,172.985803 334.745455,172.985803 L339,213.555636 C339,213.555636 323.872727,214.923159 323.872727,213.555636 C323.872727,212.188114 321.036364,183.014301 321.036364,183.014301 C321.036364,183.014301 298.818182,230.421747 287,198.96873 L292.672727,188.484391 Z" id="Path" fill="#2F2E41"></path>
                    <path d="M256,205.650832 C256,205.650832 256.457936,228.600322 270.196016,229.977292 C283.934095,231.354261 299.045983,220.797496 299.045983,220.797496 L323.774527,208.923393 C323.774527,208.923393 353.08243,224.469414 361.783214,220.338506 C361.783214,220.338506 370.941934,210.69972 364.988766,207.945781 C359.035598,205.191842 364.53083,207.945781 364.53083,207.945781 L329.269759,189.586189 C329.269759,189.586189 322.400719,187.75023 310.494383,192.799118 C298.588047,197.848005 282.560288,200.142954 282.560288,200.142954 L256,205.650832 Z" id="Path" fill="#2F2E41"></path>
                    <ellipse id="Oval" fill="#FFB8B8" cx="279" cy="113.55642" rx="14" ry="13.9455253"></ellipse>
                    <path d="M299.716238,152.566247 L298.778021,171.994581 C298.778021,171.994581 299.24713,197.436446 295.02515,199.286764 C292.890705,200.221174 288.603051,202.099247 284.639082,204.153099 C281.664932,205.688863 278.873734,207.317142 277.316293,208.718758 C276.903377,209.065071 276.547328,209.472339 276.260798,209.92609 C274.384363,213.164145 262.187535,212.701566 259.372882,210.388669 C256.558229,208.075772 258.434664,213.164145 256.08912,214.089304 C253.818634,214.986708 250.670914,207.650199 252.598951,196.696319 C252.659935,196.330882 252.730301,195.960818 252.805359,195.586129 C254.958568,184.969932 251.576293,159.541944 252.097004,149.716758 C252.127332,148.966129 252.20725,148.218249 252.33625,147.477873 C253.743576,140.076603 271.701061,125.015019 275.05988,131.430995 C279.19742,139.350354 288.701564,132.115612 290.334062,128.512119 C299.716238,128.049539 303,139.151444 303,139.151444 L299.716238,152.566247 Z" id="Path" fill="#3F3D56"></path>
                    <path d="M336.024246,214.163424 C336.024246,214.163424 328.730742,217.069898 326.451522,216.585486 C324.172302,216.101073 321.893082,218.038723 321.893082,220.945197 C321.893082,223.851671 319.158018,230.633444 323.260614,231.117856 C327.36321,231.602268 344.229438,230.633444 347.87619,232.086681 C347.87619,232.086681 364.286574,232.571093 362.919042,225.304908 C361.55151,218.038723 354.71385,218.523135 354.71385,218.523135 C354.71385,218.523135 336.024246,217.55431 336.024246,214.163424 Z" id="Path" fill="#2F2E41"></path>
                    <path d="M389.471545,215.989624 C389.471545,215.989624 390.403095,213.167315 391.800419,213.167315 C393.197743,213.167315 404.376335,215.048854 405.773659,214.57847 C407.170983,214.108085 423.473096,213.167315 420.678448,221.163856 C417.8838,229.160398 408.568307,230.101167 408.568307,230.101167 C408.568307,230.101167 391.800419,228.219628 389.471545,228.690013 C387.142672,229.160398 378.758728,228.690013 380.156052,226.338089 C381.553376,223.986165 390.403095,219.752702 389.471545,215.989624 Z" id="Path" fill="#2F2E41"></path>
                    <path d="M347.516914,150.902489 L349.982121,161.166157 C350.009604,161.280583 350.005335,161.400437 349.969782,161.512575 L338.787084,196.783862 C338.695827,197.071691 338.417803,197.256105 338.119828,197.226454 C337.821854,197.196802 337.584863,196.961138 337.551054,196.660864 L336.004061,182.920546 C335.993788,182.829293 336.003061,182.736877 336.031251,182.649555 L346.29574,150.854896 C346.383742,150.582334 346.640333,150.401872 346.924146,150.412933 C347.207959,150.423994 347.449998,150.62389 347.516914,150.902489 L347.516914,150.902489 Z" id="Path" fill="#D0CDE1"></path>
                    <polygon id="Path" fill="#F2F2F2" points="346.750139 152.404669 349 161.183229 339.249861 193.245136 337 183.321331"></polygon>
                    <path d="M295.072098,199.777309 C295.45676,200.982883 335.076702,199.375452 335.461359,198.973591 C335.796735,198.470344 336.080382,197.931555 336.307593,197.36616 C336.669195,196.562442 337,195.758724 337,195.758724 L335.461359,182.746548 L296.226076,181.291829 C296.226076,181.291829 295.245176,192.318846 295.045146,197.366169 C294.976994,198.168804 294.986023,198.976555 295.072098,199.777309 Z" id="Path" fill="#D0CDE1"></path>
                    <polygon id="Path" fill="#000000" opacity="0.1" points="331.20019 185.276265 332 196.233463 314 196.233463 314 185.276265"></polygon>
                    <polygon id="Path" fill="#000000" opacity="0.1" points="307.897642 188.286616 308 188.264591 307.517067 193.245136 298 193.245136 298 188.286616"></polygon>
                    <path d="M296.071557,199.756206 C296.453355,201.019523 335.778274,199.335102 336.160068,198.913993 C336.492946,198.386643 336.77448,197.822048 337,197.229572 L296.044815,197.229572 C295.977166,198.070653 295.986125,198.917096 296.071557,199.756206 Z" id="Path" fill="#000000" opacity="0.1"></path>
                    <path d="M288.978003,73.7120623 C287.52138,75.6592048 285.362436,77.048404 282.89849,77.6239993 C278.647238,78.6895543 282.863766,84.6692607 282.863766,84.6692607 C282.863766,84.6692607 281.330473,82.49482 283.542038,80.1920314 C285.753603,77.8892427 289.312575,76.3148908 288.978003,73.7120623 Z" id="Path" fill="#2F2E41"></path>
                    <ellipse id="Oval" fill="#2F2E41" cx="283" cy="87.6575875" rx="5" ry="4.98054475"></ellipse>
                    <path d="M289.515753,91.6420233 C285.393986,90.1893479 278.530879,89.4527715 275,89.9562756 L275.484247,86.6614786 C278.878761,88.2962166 285.710374,89.0644402 290,88.3472263 L289.515753,91.6420233 Z" id="Path" fill="#B713FE"></path>
                    <path d="M281.934009,92.6381323 C281.934009,92.6381323 276.4493,101.436082 263.695498,104.729601 C250.941696,108.023119 263.591297,126.505837 263.591297,126.505837 C263.591297,126.505837 258.991438,119.784846 265.62611,112.667141 C272.260781,105.549435 282.937724,100.683227 281.934009,92.6381323 Z" id="Path" fill="#2F2E41"></path>
                    <path d="M282.126402,92.6381323 C282.126402,92.6381323 287.041018,104.567054 292.436501,105.694866 C297.831983,106.822679 297.422746,125.671576 288.985067,128.498054 C288.985067,128.498054 295.137677,117.448021 289.878605,110.037255 C284.619534,102.626489 281.29765,96.7681864 282.126402,92.6381323 Z" id="Path" fill="#2F2E41"></path>
                    <path d="M284.300106,203.624045 C283.151974,205.763124 281.803965,207.984651 281.576198,208.882423 C281.422804,209.491626 279.721524,209.13893 277.0441,208.144968 C271.675306,206.143303 262.369398,201.558254 253.686362,196.973204 C253.286135,196.763965 252.906449,196.518624 252.552175,196.240329 C252.612603,195.878472 252.682328,195.512035 252.7567,195.141017 C254.890273,184.62884 251.538844,159.450003 252.054806,149.721087 L256.010515,148.420233 L263.912635,155.748984 L263.912635,186.896173 C263.912635,186.896173 284.365182,197.889298 285.759674,198.805392 C286.470888,199.2726 285.490072,201.402518 284.300106,203.624045 Z" id="Path" fill="#000000" opacity="0.1"></path>
                    <path d="M300.218257,179.462796 L312.958142,185.576193 C312.958142,185.576193 320.507704,178.152782 325.22618,183.829508 C329.944656,189.506234 311.542599,191.252918 311.542599,191.252918 C311.542599,191.252918 295.499781,187.759549 295.027933,182.956166 C294.556086,178.152782 300.218257,179.462796 300.218257,179.462796 Z" id="Path" fill="#FFB8B8"></path>
                    <path d="M278.966253,195.421538 L286.443682,197.179522 C286.443682,197.179522 294.85579,187.510609 303.735238,191.026578 C312.614685,194.542546 292.519094,201.574483 292.519094,201.574483 C292.519094,201.574483 281.770289,206.848435 277.564235,202.453475 C273.358181,198.058514 278.966253,195.421538 278.966253,195.421538 Z" id="Path" fill="#FFB8B8"></path>
                    <path d="M295.617647,134.474708 C296.058824,134.941169 300.911765,138.672853 300.911765,138.672853 C300.911765,138.672853 302.235294,156.398353 300.470588,160.130037 C298.705882,163.861721 297.382353,163.861721 298.705882,165.727563 C300.029412,167.593405 301.794118,166.194024 300.029412,169.459247 C298.264706,172.724471 296.5,172.258011 297.823529,173.657392 C299.147059,175.056774 298.705882,175.523234 298.705882,175.523234 L304,180.18784 C304,180.18784 300.751926,185.65771 296.640669,185.255079 C292.529412,184.852449 289,163.861721 289,163.861721 L295.617647,134.474708 Z" id="Path" fill="#3F3D56"></path>
                    <path d="M255.494267,146.428016 L251.378253,147.802159 C251.378253,147.802159 240.402216,188.110362 253.207593,194.981078 C266.01297,201.851794 280.190352,208.722511 280.647687,206.89032 C281.105022,205.058129 286.135706,197.729365 284.763701,196.813269 C283.391697,195.897174 263.268961,184.904027 263.268961,184.904027 L263.268961,153.75678 L255.494267,146.428016 Z" id="Path" fill="#3F3D56"></path>
                    <polygon id="Path" fill="#000000" opacity="0.1" points="261.943396 162.365759 261 184.634934 286 196.233463 262.886792 184.634934"></polygon>
                    <path d="M467.084358,210.994475 C457.695516,216.542862 454,227.696046 454,227.696046 C454,227.696046 465.526804,229.853518 474.915642,224.305131 C484.30448,218.756744 488,207.60356 488,207.60356 C488,207.60356 476.473196,205.446103 467.084358,210.994475 Z" id="Path" fill="#3F3D56"></path>
                    <path d="M470.679772,215.422972 C465.47897,225.050348 454.583116,229.105058 454.583116,229.105058 C454.583116,229.105058 452.119426,217.550708 457.320228,207.923331 C462.52103,198.295955 473.416884,194.241245 473.416884,194.241245 C473.416884,194.241245 475.880574,205.795601 470.679772,215.422972 Z" id="Path" fill="#04D2A4"></path>
                    <ellipse id="Oval" fill="#3F3D56" cx="10" cy="104.59144" rx="2" ry="1.9922179"></ellipse>
                    <ellipse id="Oval" fill="#3F3D56" cx="15" cy="104.59144" rx="2" ry="1.9922179"></ellipse>
                    <ellipse id="Oval" fill="#3F3D56" cx="20" cy="104.59144" rx="2" ry="1.9922179"></ellipse>
                    <rect id="Rectangle" fill="#536DFE" opacity="0.3" x="159" y="173.322957" width="27" height="2.98832685"></rect>
                    <rect id="Rectangle-Copy" fill="#536DFE" opacity="0.3" x="95" y="173.322957" width="27" height="2.98832685"></rect>
                    <rect id="Rectangle-Copy-4" fill="#536DFE" opacity="0.3" x="33" y="173.322957" width="27" height="2.98832685"></rect>
                    <rect id="Rectangle" fill="#536DFE" opacity="0.3" x="159" y="180.29572" width="25" height="2.98832685"></rect>
                    <rect id="Rectangle-Copy-2" fill="#536DFE" opacity="0.3" x="95" y="180.29572" width="25" height="2.98832685"></rect>
                    <rect id="Rectangle-Copy-5" fill="#536DFE" opacity="0.3" x="33" y="180.29572" width="25" height="2.98832685"></rect>
                    <rect id="Rectangle" fill="#536DFE" opacity="0.3" x="159" y="187.268482" width="19" height="2.98832685"></rect>
                    <rect id="Rectangle-Copy-3" fill="#536DFE" opacity="0.3" x="95" y="187.268482" width="19" height="2.98832685"></rect>
                    <rect id="Rectangle-Copy-6" fill="#536DFE" opacity="0.3" x="33" y="187.268482" width="19" height="2.98832685"></rect>
                    <rect id="Rectangle" fill="#536DFE" opacity="0.3" x="33" y="138.459144" width="34" height="30.8793774" rx="3"></rect>
                    <rect id="Rectangle" fill="#3F3D56" x="95" y="138.459144" width="34" height="30.8793774" rx="3"></rect>
                    <rect id="Rectangle" fill="#3F3D56" x="159" y="138.459144" width="34" height="30.8793774" rx="3"></rect>
                    <path d="M107.43495,168.342412 L107,168.333938 C107.009356,167.853494 107.281187,156.530445 111.750245,153.400778 L112,153.755812 C107.71125,156.759228 107.437071,168.226961 107.43495,168.342412 Z" id="Path" fill="#04D2A4"></path>
                    <ellipse id="Oval" fill="#04D2A4" cx="115.5" cy="150.910506" rx="2.5" ry="2.49027237"></ellipse>
                    <path d="M113.304032,158.135305 C112.234178,158.41624 111.094837,158.457369 110,158.254578 C111.420037,156.743073 113.769211,156.069408 116,156.533977 C115.284558,157.255898 114.354898,157.808089 113.304032,158.135305 L113.304032,158.135305 Z" id="Path" fill="#04D2A4"></path>
                    <path d="M171.43495,168.342412 L171,168.333938 C171.009356,167.853494 171.281187,156.530445 175.750245,153.400778 L176,153.755812 C171.71125,156.759228 171.437071,168.226961 171.43495,168.342412 Z" id="Path" fill="#04D2A4"></path>
                    <ellipse id="Oval" fill="#04D2A4" cx="179.5" cy="150.910506" rx="2.5" ry="2.49027237"></ellipse>
                    <path d="M178.304032,158.135305 C177.234178,158.41624 176.094837,158.457369 175,158.254578 C176.420037,156.743073 178.769211,156.069408 181,156.533977 C180.284558,157.255898 179.354898,157.808089 178.304032,158.135305 L178.304032,158.135305 Z" id="Path" fill="#04D2A4"></path>
                    <path d="M224,227.11284 L3,227.11284 L3,99.6108949 L224,99.6108949 L224,227.11284 Z M3.92275574,226.192249 L223.077244,226.192249 L223.077244,100.531487 L3.92275574,100.531487 L3.92275574,226.192249 Z" id="Shape" fill="#2F2E41"></path>
                    <rect id="Rectangle" fill="#2F2E41" x="3" y="108.575875" width="220" height="1"></rect>
                </g>
            </g>
        </g>
    </g>
</svg>