<?xml version="1.0" encoding="UTF-8"?>
<svg width="488px" height="288px" viewBox="0 0 488 288" version="1.1" xmlns="http://www.w3.org/2000/svg" xmlns:xlink="http://www.w3.org/1999/xlink">
    <!-- Generator: sketchtool 55.2 (78181) - https://sketchapp.com -->
    <title>4BFD7128-041A-48BC-9D84-FC663FB6D262</title>
    <desc>Created with sketchtool.</desc>
    <g id="Page-5" stroke="none" stroke-width="1" fill="none" fill-rule="evenodd">
        <g id="1.-Home" transform="translate(-802.000000, -1624.000000)" fill-rule="nonzero">
            <g id="Services" transform="translate(0.000000, 872.000000)">
                <g id="Evaluate-your-product" transform="translate(0.000000, 536.000000)">
                    <g id="Img" transform="translate(802.000000, 216.000000)">
                        <g id="undraw_detailed_analysis_xn7y">
                            <rect id="Rectangle" fill="#02D8A2" x="2.30053415" y="59.6599804" width="68.5693187" height="29.8431835"></rect>
                            <rect id="Rectangle" fill="#3F3D56" x="241.150328" y="158.372049" width="11.4282198" height="10.3303327"></rect>
                            <rect id="Rectangle" fill="#3F3D56" x="217.151066" y="158.372049" width="11.4282198" height="10.3303327"></rect>
                            <rect id="Rectangle" fill="#893DEA" x="265.149589" y="135.415754" width="11.4282198" height="11.4781475"></rect>
                            <rect id="Rectangle" fill="#3F3D56" x="252.578547" y="148.041716" width="11.4282198" height="10.3303327"></rect>
                            <rect id="Rectangle" fill="#3F3D56" x="228.579286" y="148.041716" width="11.4282198" height="10.3303327"></rect>
                            <rect id="Rectangle" fill="#893DEA" x="86.8693605" y="168.702382" width="11.4282198" height="10.3303327"></rect>
                            <rect id="Rectangle" fill="#3F3D56" x="194.294626" y="157.224234" width="11.4282198" height="10.3303327"></rect>
                            <rect id="Rectangle" fill="#3F3D56" x="122.296842" y="157.224234" width="11.4282198" height="10.3303327"></rect>
                            <rect id="Rectangle" fill="#3F3D56" x="109.7258" y="145.746087" width="11.4282198" height="11.4781475"></rect>
                            <rect id="Rectangle" fill="#3F3D56" x="170.295365" y="157.224234" width="11.4282198" height="10.3303327"></rect>
                            <rect id="Rectangle" fill="#3F3D56" x="158.867145" y="145.746087" width="11.4282198" height="11.4781475"></rect>
                            <rect id="Rectangle" fill="#3F3D56" x="146.296103" y="157.224234" width="11.4282198" height="10.3303327"></rect>
                            <rect id="Rectangle" fill="#3F3D56" x="98.2975803" y="157.224234" width="11.4282198" height="10.3303327"></rect>
                            <rect id="Rectangle" fill="#893DEA" x="182.866407" y="145.746087" width="11.4282198" height="11.4781475"></rect>
                            <path d="M236.931687,126.233236 L230.86493,119.70053 L237.369228,113.607274 L243.435972,120.139983 L236.931687,126.233236 Z M231.831935,119.734332 L236.965342,125.26201 L242.468977,120.106177 L237.33557,114.578503 L231.831935,119.734332 Z" id="Shape" fill="#3F3D56"></path>
                            <path d="M152.010213,98.6856819 L142.867637,98.6856819 L142.867637,89.5031639 L152.010213,89.5031639 L152.010213,98.6856819 Z M143.570917,97.9793368 L151.306941,97.9793368 L151.306941,90.2095161 L143.570917,90.2095161 L143.570917,97.9793368 Z" id="Shape" fill="#3F3D56"></path>
                            <path d="M322.290688,80.3206459 L313.148112,80.3206459 L313.148112,71.1381279 L322.290688,71.1381279 L322.290688,80.3206459 Z M313.851392,79.6143008 L321.587415,79.6143008 L321.587415,71.8444801 L313.851392,71.8444801 L313.851392,79.6143008 Z" id="Shape" fill="#3F3D56"></path>
                            <path d="M91.2975741,175.58927 L90.766093,175.054644 C93.2104971,172.198447 95.0633288,168.858048 96.2110913,165.238067 C98.0180518,159.634173 98.90077,150.783874 92.8435966,140.445586 C86.646259,129.867907 86.3673715,121.276419 87.2245216,115.931707 C88.1574696,110.116095 90.5374354,106.856235 90.6382527,106.720385 L91.2284851,107.18512 C91.2047297,107.217072 88.8454357,110.459555 87.9502061,116.101753 C87.1237008,121.310801 87.4120161,129.694125 93.4793431,140.049805 C99.691373,150.652525 98.771117,159.748548 96.9054051,165.512026 C94.8837499,171.75667 91.4431798,175.435667 91.2975741,175.58927 Z" id="Path" fill="#3F3D56"></path>
                            <path d="M187.29462,150.337346 L186.763139,149.802719 C189.207543,146.946522 191.060375,143.606124 192.208137,139.986143 C194.015098,134.382248 194.897816,125.531949 188.840643,115.193661 C182.643305,104.615983 182.364418,96.0244944 183.221568,90.6797826 C184.154516,84.8641704 186.534482,81.6043108 186.635299,81.4684606 L187.225531,81.9331953 C187.201776,81.9651476 184.842482,85.2076301 183.947252,90.8498288 C183.120747,96.0588765 183.409062,104.442201 189.476389,114.79788 C195.688419,125.400601 194.768163,134.496624 192.902451,140.260101 C190.880796,146.504745 187.440226,150.183743 187.29462,150.337346 Z" id="Path" fill="#3F3D56"></path>
                            <path d="M269.577803,142.302642 L269.046322,141.768016 C271.490726,138.911819 273.343557,135.571421 274.49132,131.951439 C276.29828,126.347545 277.180999,117.497246 271.123825,107.158958 C264.926488,96.5812796 264.6476,87.9897912 265.50475,82.6450794 C266.437698,76.8294671 268.817664,73.5696075 268.918481,73.4337574 L269.508714,73.8984921 C269.484958,73.9304444 267.125664,77.1729268 266.230435,82.8151255 C265.403929,88.0241733 265.692245,96.4074975 271.759572,106.763177 C277.971602,117.365897 277.051346,126.461921 275.185634,132.225398 C273.163978,138.470042 269.723408,142.149039 269.577803,142.302642 Z" id="Path" fill="#3F3D56"></path>
                            <rect id="Rectangle" fill="#FFFFFF" x="19.4428638" y="68.8424984" width="33.1418374" height="1.14781475"></rect>
                            <rect id="Rectangle" fill="#FFFFFF" x="19.4428638" y="73.4337574" width="33.1418374" height="1.14781475"></rect>
                            <rect id="Rectangle" fill="#FFFFFF" x="19.4428638" y="78.0250164" width="33.1418374" height="1.14781475"></rect>
                            <rect id="Rectangle" fill="#3F3D56" x="284.577563" y="135.415754" width="33.1418374" height="1.14781475"></rect>
                            <rect id="Rectangle" fill="#3F3D56" x="284.577563" y="140.007013" width="33.1418374" height="1.14781475"></rect>
                            <rect id="Rectangle" fill="#3F3D56" x="284.577563" y="145.746087" width="33.1418374" height="1.14781475"></rect>
                            <rect id="Rectangle" fill="#3F3D56" x="75.4411407" y="187.067418" width="33.1418374" height="1.14781475"></rect>
                            <rect id="Rectangle" fill="#3F3D56" x="75.4411407" y="192.806491" width="33.1418374" height="1.14781475"></rect>
                            <rect id="Rectangle" fill="#3F3D56" x="75.4411407" y="198.545565" width="33.1418374" height="1.14781475"></rect>
                            <path d="M49.1562353,49.3685014 C54.933204,37.0020993 63.6403258,28.8674018 75.0354089,25.1901807 C83.4959122,22.4598698 93.2802032,22.2018608 104.116519,24.4230636 C112.107156,26.0733183 119.775135,28.9156574 126.837958,32.845366 C164.456755,53.6802259 187.714237,53.8654267 200.600624,50.3519614 C214.730212,46.4996908 219.901124,37.4605936 219.951654,37.3696834 L220.579532,37.6872504 C220.527826,37.7804222 215.239224,47.0561104 200.823878,50.9964296 C192.513365,53.2679886 182.803206,53.3617638 171.963308,51.2751683 C158.472534,48.6781662 143.170176,42.6748191 126.481185,33.4319647 C119.482956,29.5380467 111.885121,26.7214771 103.967553,25.0860068 C86.1947171,21.4429961 62.3709936,22.7463728 49.8049549,49.644565 L49.1562353,49.3685014 Z" id="Path" fill="#2F2E41"></path>
                            <ellipse id="Oval" fill="#3F3D56" cx="92.5834704" cy="94.0944229" rx="12.5710418" ry="12.6259622"></ellipse>
                            <ellipse id="Oval" fill="#3F3D56" cx="188.580517" cy="72.2859426" rx="12.5710418" ry="12.6259622"></ellipse>
                            <ellipse id="Oval" fill="#3F3D56" cx="270.863699" cy="60.8077952" rx="12.5710418" ry="12.6259622"></ellipse>
                            <path d="M78.8547165,91.2578692 L0,91.2578692 L0,51.084353 L78.8547165,51.084353 L78.8547165,91.2578692 Z M0.707217188,90.5530707 L78.1474993,90.5530707 L78.1474993,51.7891515 L0.707217188,51.7891515 L0.707217188,90.5530707 Z" id="Shape" fill="#3F3D56"></path>
                            <rect id="Rectangle" fill="#3C97C0" x="101.726046" y="32.1124264" width="68.5693187" height="29.8431835"></rect>
                            <rect id="Rectangle" fill="#FFFFFF" x="118.868376" y="40.1471297" width="33.1418374" height="1.14781475"></rect>
                            <rect id="Rectangle" fill="#FFFFFF" x="118.868376" y="45.8862034" width="33.1418374" height="1.14781475"></rect>
                            <rect id="Rectangle" fill="#FFFFFF" x="117.725554" y="51.6252772" width="33.1418374" height="1.14781475"></rect>
                            <path d="M178.417963,63.3936767 L99.5632463,63.3936767 L99.5632463,23.2201604 L178.417963,23.2201604 L178.417963,63.3936767 Z M100.270464,62.6888781 L177.710746,62.6888781 L177.710746,23.924959 L100.270464,23.924959 L100.270464,62.6888781 Z" id="Shape" fill="#3F3D56"></path>
                            <rect id="Rectangle" fill="#B613FE" x="278.863453" y="20.6342789" width="68.5693187" height="29.8431835"></rect>
                            <rect id="Rectangle-Copy-2" fill="#8649E5" x="189.723339" y="8.0083167" width="68.5693187" height="29.8431835"></rect>
                            <rect id="Rectangle" fill="#FFFFFF" x="296.005783" y="29.8167969" width="33.1418374" height="1.14781475"></rect>
                            <rect id="Rectangle-Copy-3" fill="#FFFFFF" x="206.865668" y="17.1908347" width="33.1418374" height="1.14781475"></rect>
                            <rect id="Rectangle" fill="#FFFFFF" x="296.005783" y="34.4080559" width="33.1418374" height="1.14781475"></rect>
                            <rect id="Rectangle-Copy-4" fill="#FFFFFF" x="206.865668" y="21.7820937" width="33.1418374" height="1.14781475"></rect>
                            <rect id="Rectangle" fill="#FFFFFF" x="296.005783" y="40.1471297" width="33.1418374" height="1.14781475"></rect>
                            <rect id="Rectangle-Copy-5" fill="#FFFFFF" x="206.865668" y="27.5211674" width="33.1418374" height="1.14781475"></rect>
                            <path d="M356.705637,51.7835964 L277.85092,51.7835964 L277.85092,11.6100802 L356.705637,11.6100802 L356.705637,51.7835964 Z M278.558137,51.0787979 L355.998419,51.0787979 L355.998419,12.3148788 L278.558137,12.3148788 L278.558137,51.0787979 Z" id="Shape" fill="#3F3D56"></path>
                            <path d="M266.404088,40.1735162 L187.549371,40.1735162 L187.549371,-3.69482223e-13 L266.404088,-3.69482223e-13 L266.404088,40.1735162 Z M188.256588,39.4687177 L265.69687,39.4687177 L265.69687,0.70479853 L188.256588,0.70479853 L188.256588,39.4687177 Z" id="Shape-Copy" fill="#3F3D56"></path>
                        </g>
                        <g id="undraw_creative_experiment_8dk3-copy" transform="translate(415.351129, 152.529617) scale(-1, 1) translate(-415.351129, -152.529617) translate(342.702259, 17.059233)">
                            <polygon id="Rectangle" fill="#F2F2F2" transform="translate(116.025386, 107.218674) rotate(17.604730) translate(-116.025386, -107.218674) " points="94.0791953 80.1918815 137.844717 80.2954847 137.971578 134.245467 94.2060564 134.141864"></polygon>
                            <polygon id="Rectangle" fill="#3F3D56" transform="translate(117.433522, 89.712863) rotate(17.604730) translate(-117.433522, -89.712863) " points="108.840169 89.2140206 126.024625 89.2547002 126.026875 90.2117055 108.842419 90.1710259"></polygon>
                            <polygon id="Rectangle" fill="#3F3D56" transform="translate(120.629302, 92.590228) rotate(17.604730) translate(-120.629302, -92.590228) " points="108.123742 92.0821248 133.132611 92.1413266 133.134862 93.0983319 108.125992 93.03913"></polygon>
                            <polygon id="Rectangle" fill="#3F3D56" transform="translate(115.621314, 95.470950) rotate(17.604730) translate(-115.621314, -95.470950) " points="107.027961 94.9721076 124.212417 95.0127873 124.214667 95.9697925 107.030211 95.9291129"></polygon>
                            <polygon id="Rectangle" fill="#3F3D56" transform="translate(113.499714, 102.212123) rotate(17.604730) translate(-113.499714, -102.212123) " points="104.906361 101.71328 122.090817 101.75396 122.093067 102.710965 104.908611 102.670285"></polygon>
                            <polygon id="Rectangle" fill="#3F3D56" transform="translate(118.817095, 98.348311) rotate(17.604730) translate(-118.817095, -98.348311) " points="106.311536 97.8402075 131.320405 97.8994093 131.322655 98.8564146 106.313786 98.7972127"></polygon>
                            <polygon id="Rectangle" fill="#3F3D56" transform="translate(118.286696, 100.033602) rotate(17.604730) translate(-118.286696, -100.033602) " points="105.781136 99.5254984 130.790005 99.5847003 130.792255 100.541706 105.783386 100.482504"></polygon>
                            <polygon id="Rectangle" fill="#3F3D56" transform="translate(117.756294, 101.718897) rotate(17.604730) translate(-117.756294, -101.718897) " points="105.250735 101.210794 130.259604 101.269995 130.261854 102.227001 105.252985 102.167799"></polygon>
                            <polygon id="Rectangle" fill="#6C63FF" transform="translate(108.085558, 105.774459) rotate(17.604730) translate(-108.085558, -105.774459) " points="103.585406 104.512342 112.579824 104.533634 112.58571 107.036576 103.591292 107.015284"></polygon>
                            <ellipse id="Oval" fill="#1E1E1E" cx="58.3479118" cy="263.44666" rx="58.3479118" ry="7.49410631"></ellipse>
                            <path d="M30.5433805,51.8822744 L28.6019176,56.4976556 L30.7860634,86.3761894 C30.7860634,86.3761894 29.5726491,88.0765974 30.7860634,89.2911714 C31.9994777,90.5057454 31.7567949,90.991575 31.7567949,90.991575 C31.7567949,90.991575 29.8153319,90.991575 30.7860634,92.4490638 C31.7567949,93.9065526 31.7567949,94.635297 31.7567949,94.635297 L31.2714291,96.0927858 C31.2714291,96.0927858 32.2421606,97.3073598 32.2421606,98.2790235 C32.2421606,99.2506871 38.5519197,129.129216 38.5519197,129.129216 L44.6189914,117.226382 L41.2214312,69.8579785 L30.5433805,51.8822744 Z" id="Path" fill="#C6C6C6"></path>
                            <path d="M93.4064369,129.148838 C93.4064369,129.148838 106.310985,128.583729 110.425372,133.518947 C114.539759,138.454164 94.2607729,134.883841 93.1137936,133.493311 C91.9668144,132.10278 93.4064369,129.148838 93.4064369,129.148838 Z" id="Path" fill="#FFB9B9"></path>
                            <path d="M27.9728211,247.881978 L25.3601296,256.524715 C25.3601296,256.524715 21.5598749,264.927376 26.7852316,266.127755 C32.0105884,267.328135 36.9984718,262.766693 36.9984718,262.766693 L36.9984718,257.004867 L38.8986079,247.881978 L27.9728211,247.881978 Z" id="Path" fill="#2F2E41"></path>
                            <path d="M71.2101715,247.881978 C71.2101715,247.881978 69.9867672,264.521791 72.6782567,265.500603 C75.3697462,266.479415 84.9122997,266.724118 85.1570076,265.500603 C85.4017154,264.277088 88.3378633,263.053573 86.135731,261.340643 C83.9335988,259.627713 82.4655181,249.59489 82.4655181,249.59489 L71.2101715,247.881978 Z" id="Path" fill="#2F2E41"></path>
                            <path d="M46.835429,90.6215424 L46.835429,97.9641347 C46.835429,97.9641347 38.8519799,114.852116 35.9488864,141.530231 C33.045793,168.208347 23.1269644,249.466445 25.5461942,250.934978 C27.9654239,252.40351 54.0931182,253.38251 54.8188871,251.424484 C55.544656,249.466458 56.2704249,192.194172 56.2704249,192.194172 L65.2215794,151.809871 C65.2215794,151.809871 66.9150446,166.250316 68.3665824,168.697849 C69.8181203,171.145381 65.9473483,250.690224 68.3665824,251.913986 C70.7858166,253.137748 103.445427,255.340531 102.961581,251.42448 C102.477735,247.508428 91.5911966,141.285478 91.5911966,141.285478 C91.5911966,141.285478 86.0269638,91.1110488 84.3335253,90.6215424 C82.6400867,90.1320359 67.1569898,89.6425295 64.7377556,90.1320359 C62.3185215,90.6215424 46.835429,90.6215424 46.835429,90.6215424 Z" id="Path" fill="#1E1E1E"></path>
                            <ellipse id="Oval" fill="#FFB9B9" cx="65.7844104" cy="14.4117429" rx="14.3009588" ry="14.4117429"></ellipse>
                            <path d="M67.5005255,26.4951164 C67.5005255,26.4951164 60.588395,37.6860008 62.2568392,40.6702342 C63.9252834,43.6544676 44.6189914,37.6860008 44.6189914,37.6860008 C44.6189914,37.6860008 56.2981098,22.7648246 56.0597563,21.0240218 C55.8214027,19.283219 67.5005255,26.4951164 67.5005255,26.4951164 Z" id="Path" fill="#FFB9B9"></path>
                            <path d="M82.3735226,44.1546451 C82.3735226,44.1546451 69.2630175,39.9498502 67.5314419,38.2184723 C66.4206306,37.0839118 65.4261993,35.8410132 64.5630221,34.5083672 C64.5630221,34.5083672 48.7314697,32.2823041 48.2367566,32.2823041 C47.7420434,32.2823041 44.0314926,36.7344303 43.0420254,37.7237916 C42.0525582,38.713153 29.4367844,45.3913468 29.4367844,47.1227292 C29.4367844,48.8541116 27.4578409,57.7583685 27.4578409,57.7583685 C27.4578409,57.7583685 31.9104637,66.9099657 34.631511,68.8886884 C37.3525583,70.8674111 38.0946667,70.372735 38.3420346,73.5881595 C38.5894025,76.8035839 42.0525536,81.9977493 42.0525536,81.9977493 C42.0525536,81.9977493 44.2788651,87.6865772 43.7841292,89.4179641 C43.2893933,91.1493511 41.0630819,92.6333886 46.2578131,92.1387079 C51.4525443,91.6440272 77.1788187,93.1280692 77.1788187,90.4073255 C77.1788187,87.6865817 72.2314554,61.7158321 72.2314554,61.7158321 L82.3735226,44.1546451 Z" id="Path" fill="#C6C6C6"></path>
                            <path d="M78.0184029,43.1539586 L82.8265176,42.658759 C82.8265176,42.658759 84.5979283,43.6491582 84.850987,53.3055551 C85.1040456,62.9619521 85.1040456,86.23632 86.8754609,88.2171458 C88.6468763,90.1979715 95.985573,120.900334 95.985573,120.900334 C95.985573,120.900334 98.010047,121.395533 98.010047,123.128732 C98.010047,124.86193 100.287575,126.347529 99.2753403,128.328328 C98.2631056,130.309126 100.287575,129.813931 99.0222816,131.05193 C97.7569883,132.289929 91.6835756,134.765927 91.430517,133.280328 C91.1774583,131.79473 92.189693,131.54713 91.1774583,131.05193 C90.1652236,130.556731 90.1652236,130.309131 89.912165,128.575928 C89.6591063,126.842724 87.3815783,125.10953 87.6346369,124.366722 C87.8876956,123.623913 76.5000509,102.08273 76.5000509,101.339931 C76.5000509,100.597131 75.7408703,97.873529 74.7286356,97.3783294 C73.7164009,96.8831298 72.1980489,96.3879302 72.9572249,95.1499312 C73.7164009,93.9119322 70.9327556,56.7719433 70.9327556,56.7719433 L78.0184029,43.1539586 Z" id="Path" fill="#C6C6C6"></path>
                            <path d="M77.4448801,6.07963647 C73.2986172,1.4586233 66.7872086,-0.994057356 60.8159044,0.380445695 C54.8446001,1.75494875 49.8164288,7.19806232 49.349485,13.4627211 C49.2539786,14.7441817 49.3335324,16.0531028 49.0105723,17.2948166 C48.4673716,19.3833287 46.8509922,21.0386158 46.2811544,23.1196281 C45.8994905,24.5134023 46.0126068,26.0141306 45.6081085,27.4011035 C44.8606679,29.9639844 42.547148,31.6350278 40.7838544,33.6047294 C40.0697756,34.326612 39.5394599,35.2176319 39.2395759,36.1993782 C39.0845024,37.0699816 39.0451984,37.9581625 39.1227396,38.8396169 C39.1970518,43.5907601 37.4766326,48.1868906 34.3223011,51.6640733 C36.1770153,50.2493312 38.1808395,49.0532746 40.2959821,48.0984607 C39.2475915,51.5261932 40.2060316,55.5818458 42.8439377,57.9425093 C45.4818438,60.3031729 49.7068842,60.6699428 52.5590824,58.5884559 C54.2534587,57.3519226 55.3539854,55.45404 56.4051148,53.6126635 L60.3849347,46.6407746 C61.1047962,45.379718 61.8563449,44.0819683 63.0065567,43.2206091 C63.9206278,42.5360979 65.0312415,42.1718801 65.9513439,41.4959611 C68.2723735,39.7908976 68.8955815,36.4537271 68.4634038,33.5573306 C68.0312262,30.6609342 66.7625732,27.9717072 66.0349796,25.1383405 C65.4595117,22.8973784 65.278926,20.3291872 66.5735314,18.4306868 C68.2919981,15.9106153 71.8237095,15.589086 74.1588252,13.661446 C75.0379819,12.9357014 75.4307446,12.0526801 76.0604113,11.1442356 C76.6417056,10.305564 76.7897929,10.6061833 77.6905105,10.5678515 C80.1636745,10.4626212 78.3613322,7.10102593 77.4448801,6.07963647 Z" id="Path" fill="#2F2E41"></path>
                            <ellipse id="Oval" fill="#FFB9B9" cx="64.0682954" cy="19.5999703" rx="1.1440767" ry="2.30587886"></ellipse>
                        </g>
                    </g>
                </g>
            </g>
        </g>
    </g>
</svg>