<svg height="32" viewBox="0 0 31 32" width="31" xmlns="http://www.w3.org/2000/svg"><g fill="none" fill-rule="evenodd"><path d="m-9-8h48v48h-48z"/><g fill="#707070" fill-rule="nonzero"><path d="m15.5 7c1.9297808 0 3.5-1.57020447 3.5-3.49996719s-1.5702192-3.50003281-3.5-3.50003281-3.5 1.57020447-3.5 3.49996719 1.5701536 3.50003281 3.5 3.50003281zm0-5.60002625c1.158026 0 2.1000131.94197831 2.1000131 2.09999344s-.9419871 2.09999344-2.1000131 2.09999344-2.1000131-.94197831-2.1000131-2.09999344.9419871-2.09999344 2.1000131-2.09999344z"/><path d="m10.5474063 14h9.9051875c.8533958 0 1.5474062-.6914375 1.5474062-1.5416875v-.4270625c0-1.1139375-.5973906-2.1315-1.5601354-2.655625-1.1531406-.627625-2.9459896-1.375625-4.9398646-1.375625s-3.786724.7480625-4.9398646 1.375625c-.96274477.5240625-1.5601354 1.5416875-1.5601354 2.655625v.4270625c0 .8503125.69401042 1.5416875 1.5474063 1.5416875zm-.1029844-1.96875c0-.63475.3335989-1.2259375.8491979-1.5071875.9980208-.543 2.5383854-1.19075 4.2063802-1.19075s3.2083594.6478125 4.2063802 1.19075c.515599.28125.8491979.872375.8491979 1.5071875v.4270625c0 .1386875-.0853125.2083125-.1029844.2083125h-9.9051875c-.0176041 0-.1029843-.0696875-.1029843-.2083125z"/><path d="m6.5 24c1.92978081 0 3.5-1.5702045 3.5-3.4999672s-1.57021919-3.5000328-3.5-3.5000328-3.5 1.5702045-3.5 3.4999672 1.57021919 3.5000328 3.5 3.5000328zm0-5.6000262c1.15802599 0 2.10001313.9419783 2.10001313 2.0999934s-.94198714 2.0999934-2.10001313 2.0999934-2.10001313-.9419783-2.10001313-2.0999934.94198714-2.0999934 2.10001313-2.0999934z"/><path d="m11.4398646 27.3756393c-1.1531406-.6276315-2.9459896-1.3756393-4.9398646-1.3756393s-3.78672396.7480703-4.93986458 1.3756393c-.9627448.524068-1.56013542 1.5416411-1.56013542 2.6555902v.4270669c0 .8502589.69401042 1.5417036 1.54740625 1.5417036h9.90518755c.8533958 0 1.5474062-.6914447 1.5474062-1.5417036v-.4270669c0-1.1139491-.5973906-2.1315222-1.5601354-2.6555902zm.1157135 3.0827196c0 .138689-.0853125.2083147-.1029844.2083147h-9.90518745c-.01760417 0-.10298438-.0696882-.10298438-.2083147v-.4270669c0-.6347566.33359896-1.2259503.84919792-1.5072032.99802083-.5430057 2.53838542-1.1907624 4.20638021-1.1907624s3.20835937.6478192 4.2063802 1.1907624c.515599.2812529.8491979.8723841.8491979 1.5072032z"/><path d="m24.5 24c1.9297808 0 3.5-1.5702045 3.5-3.4999672s-1.5701536-3.5000328-3.5-3.5000328-3.5 1.5702045-3.5 3.4999672 1.5702192 3.5000328 3.5 3.5000328zm0-5.6000262c1.158026 0 2.1000131.9419783 2.1000131 2.0999934s-.9419871 2.0999934-2.1000131 2.0999934-2.1000131-.9419783-2.1000131-2.0999934.9420527-2.0999934 2.1000131-2.0999934z"/><path d="m29.4398646 27.375625c-1.1531406-.627625-2.9459896-1.375625-4.9398646-1.375625s-3.786724.7480625-4.9398646 1.375625c-.9627448.5240625-1.5601354 1.5416875-1.5601354 2.655625v.4270625c0 .85025.6940104 1.5416875 1.5474063 1.5416875h9.9051875c.8533958 0 1.5474062-.6914375 1.5474062-1.5416875v-.4270625c0-1.114-.5974583-2.1315625-1.5601354-2.655625zm.1156458 3.0826875c0 .1386875-.0853125.2083125-.1029844.2083125h-9.9051875c-.0176041 0-.1029843-.0696875-.1029843-.2083125v-.4270625c0-.63475.3335989-1.2259375.8491979-1.5071875.9980208-.543 2.5383854-1.19075 4.2063802-1.19075s3.2083594.6478125 4.2063802 1.19075c.515599.28125.8491979.872375.8491979 1.5071875z"/><path d="m19.2492081 25c.2204258 0 .4379689-.0966797.5866772-.28125.2585346-.3237187.2058011-.7954453-.1172089-1.0546875l-3.468666-2.7749531v-4.139086c0-.4145625-.3354551-.7500234-.7500104-.7500234s-.7500104.3353906-.7500104.7499531v4.1396485l-3.468666 2.7743906c-.32301.2593125-.3757435.7309687-.1172089 1.0546875.1487083.1845703.3661811.2813203.5866772.2813203.1640362 0 .3296193-.0535078.4679919-.1641094l3.2812162-2.6249765 3.2811459 2.6249765c.1384429.1106016.3039556.1641094.4680622.1641094z"/></g></g></svg>