<svg height="32" viewBox="0 0 32 32" width="32" xmlns="http://www.w3.org/2000/svg"><g fill="none" fill-rule="evenodd"><path d="m-8-8h48v48h-48z"/><g fill="#707070" fill-rule="nonzero"><path d="m31.4666667 4.88135593h-5.8666667v-4.33898305c0-.29952542-.2388-.54237288-.5333333-.54237288h-18.13333337c-.29453333 0-.53333333.24284746-.53333333.54237288v7.59322034h-5.86666667c-.29453333 0-.53333333.24284746-.53333333.54237288v22.2372881c0 .2995255.2388.5423729.53333333.5423729.29453334 0 .53333334-.2428474.53333334-.5423729v-21.69491522h5.33333333v22.23728812c0 .2995254.2388.5423729.53333333.5423729h18.13333337c.2945333 0 .5333333-.2428475.5333333-.5423729v-25.49152541h5.3333333v24.94915251c0 .2995255.2388.5423729.5333334.5423729.2945333 0 .5333333-.2428474.5333333-.5423729v-25.49152539c0-.29952542-.2388-.54237288-.5333333-.54237288zm-16 26.03389827h-2.1333334v-4.8813559h2.1333334zm3.2 0h-2.1333334v-4.8813559h2.1333334zm5.8666666 0h-4.8v-5.4237288c0-.2995254-.2388-.5423729-.5333333-.5423729h-6.4c-.2945333 0-.5333333.2428475-.5333333.5423729v5.4237288h-4.80000003v-29.83050844h17.06666663z"/><path d="m12.5 2h-3c-.276125 0-.5.223875-.5.5v3c0 .276125.223875.5.5.5h3c.276125 0 .5-.223875.5-.5v-3c0-.276125-.223875-.5-.5-.5zm-.5 3h-2v-2h2z"/><path d="m17.5 2h-3c-.276125 0-.5.223875-.5.5v3c0 .276125.223875.5.5.5h3c.276125 0 .5-.223875.5-.5v-3c0-.276125-.223875-.5-.5-.5zm-.5 3h-2v-2h2z"/><path d="m22.5 2h-3c-.276125 0-.5.223875-.5.5v3c0 .276125.223875.5.5.5h3c.276125 0 .5-.223875.5-.5v-3c0-.276125-.223875-.5-.5-.5zm-.5 3h-2v-2h2z"/><path d="m12.5 8h-3c-.276125 0-.5.223875-.5.5v3c0 .276125.223875.5.5.5h3c.276125 0 .5-.223875.5-.5v-3c0-.276125-.223875-.5-.5-.5zm-.5 3h-2v-2h2z"/><path d="m17.5 8h-3c-.276125 0-.5.223875-.5.5v3c0 .276125.223875.5.5.5h3c.276125 0 .5-.223875.5-.5v-3c0-.276125-.223875-.5-.5-.5zm-.5 3h-2v-2h2z"/><path d="m22.5 8h-3c-.276125 0-.5.223875-.5.5v3c0 .276125.223875.5.5.5h3c.276125 0 .5-.223875.5-.5v-3c0-.276125-.223875-.5-.5-.5zm-.5 3h-2v-2h2z"/><path d="m12.5 13h-3c-.276125 0-.5.223875-.5.5v3c0 .276125.223875.5.5.5h3c.276125 0 .5-.223875.5-.5v-3c0-.276125-.223875-.5-.5-.5zm-.5 3h-2v-2h2z"/><path d="m17.5 13h-3c-.276125 0-.5.223875-.5.5v3c0 .276125.223875.5.5.5h3c.276125 0 .5-.223875.5-.5v-3c0-.276125-.223875-.5-.5-.5zm-.5 3h-2v-2h2z"/><path d="m22.5 13h-3c-.276125 0-.5.223875-.5.5v3c0 .276125.223875.5.5.5h3c.276125 0 .5-.223875.5-.5v-3c0-.276125-.223875-.5-.5-.5zm-.5 3h-2v-2h2z"/><path d="m12.5 19h-3c-.276125 0-.5.223875-.5.5v3c0 .276125.223875.5.5.5h3c.276125 0 .5-.223875.5-.5v-3c0-.276125-.223875-.5-.5-.5zm-.5 3h-2v-2h2z"/><path d="m17.5 19h-3c-.276125 0-.5.223875-.5.5v3c0 .276125.223875.5.5.5h3c.276125 0 .5-.223875.5-.5v-3c0-.276125-.223875-.5-.5-.5zm-.5 3h-2v-2h2z"/><path d="m22.5 19h-3c-.276125 0-.5.223875-.5.5v3c0 .276125.223875.5.5.5h3c.276125 0 .5-.223875.5-.5v-3c0-.276125-.223875-.5-.5-.5zm-.5 3h-2v-2h2z"/><path d="m29.5 7h-2c-.276125 0-.5.223875-.5.5v2c0 .276125.223875.5.5.5h2c.276125 0 .5-.223875.5-.5v-2c0-.276125-.223875-.5-.5-.5zm-.5 2h-1v-1h1z"/><path d="m29.5 11h-2c-.276125 0-.5.223875-.5.5v2c0 .276125.223875.5.5.5h2c.276125 0 .5-.223875.5-.5v-2c0-.276125-.223875-.5-.5-.5zm-.5 2h-1v-1h1z"/><path d="m29.5 16h-2c-.276125 0-.5.223875-.5.5v2c0 .276125.223875.5.5.5h2c.276125 0 .5-.223875.5-.5v-2c0-.276125-.223875-.5-.5-.5zm-.5 2h-1v-1h1z"/><path d="m29.5 20h-2c-.276125 0-.5.223875-.5.5v2c0 .276125.223875.5.5.5h2c.276125 0 .5-.223875.5-.5v-2c0-.276125-.223875-.5-.5-.5zm-.5 2h-1v-1h1z"/><path d="m29.5 24h-2c-.276125 0-.5.223875-.5.5v2c0 .276125.223875.5.5.5h2c.276125 0 .5-.223875.5-.5v-2c0-.276125-.223875-.5-.5-.5zm-.5 2h-1v-1h1z"/></g></g></svg>