<svg height="32" viewBox="0 0 35 32" width="35" xmlns="http://www.w3.org/2000/svg"><g fill="none" fill-rule="evenodd"><path d="m-7-8h48v48h-48z"/><g fill="#707070" fill-rule="nonzero"><path d="m32.0833205 10.1828094h-.4050963l-5.009563-8.72612624c-.3873912-.67466006-1.0139711-1.15691076-1.7631189-1.35716105-.2793155-.07425011-.5629376-.10731834-.8436202-.09797741-.4707211.01561366-.9331023.14843203-1.3524173.39129602l-21.26393133 12.34665418c-.92927418.5400008-1.44976068 1.524684-1.4455481 2.5335719.00207646.4878416.12792564.9812741.38741694 1.4329111l3.98759382 6.9467146v5.438326c0 1.6043205 1.30880413 2.9089815 2.9166795 2.9089815h24.79160487c1.6078754 0 2.9166795-1.3045928 2.9166795-2.9089815v-15.9992276c0-1.6043205-1.3088041-2.9089815-2.9166795-2.9089815zm-27.70828437 2.9080269v7.6352156l-2.7229497-4.743825c-.39873887-.6946374-.16235296-1.5859114.52834781-1.9864802l2.23438691-1.2974337c-.01777338.1296139-.03978502.2581368-.03978502.3925233zm19.06939787-11.44099377c.3290125-.19172755.7120971-.24361399 1.0837658-.14556839.371737.09940923.6821559.33947776.8758857.67541007l1.4205713 2.47459448c-.6487283.28765951-1.3399759.43793245-2.0330009.43793245-1.5664497 0-3.0007612-.70868284-3.9648302-1.92238914zm-3.8838247 2.25375326c1.2363435 1.66329785 3.1411709 2.64177654 5.2310466 2.64177654.9458171 0 1.8839096-.22254578 2.7564457-.63218273l2.4504018 4.2685289h-21.24984938zm-13.72719924 9.18724051c0-.8018193.65371847-1.4545248 1.45830557-1.4545248h2.84298837c-.32286025 2.2209578-2.07456326 3.9681194-4.30129394 4.2901426zm1.45830557 17.4546389c-.80465546 0-1.45830557-.6527055-1.45830557-1.4545249v-2.8356177c2.22673068.3220232 3.97843369 2.0691848 4.30129394 4.2901426zm26.24991047-1.454593c0 .8018193-.6537185 1.4545248-1.4583056 1.4545248h-2.8429883c.3228602-2.2209578 2.0745632-3.9681194 4.3012939-4.2901426zm0-4.2901426c-3.0296772.339955-5.4188292 2.7228448-5.7595995 5.7446674h-16.1890171c-.3408386-3.0218226-2.72992228-5.4047805-5.75959944-5.7446674v-7.4197607c3.02967716-.339955 5.41882914-2.7228449 5.75959944-5.7446674h16.1890171c.3408387 3.0218225 2.7299223 5.4047805 5.7595995 5.7446674zm0-8.8742855c-2.2267307-.3220232-3.9784337-2.0691848-4.3012939-4.2901426h2.8429883c.8046555 0 1.4583056.6527055 1.4583056 1.4545248z"/><path d="m19.6250264 18h2.624956c.4145593 0 .7500176-.3354583.7500176-.7500176 0-.4145592-.3354583-.7500176-.7500176-.7500176h-1.4999648v-.7499472c0-.4145593-.3354583-.7500176-.7500176-.7500176s-.7500176.3354583-.7500176.7500176v.7879157c-1.2688494.1838657-2.2499824 1.2681463-2.2499824 2.5870579 0 1.4472309 1.1777252 2.6249561 2.6249561 2.6249561h.7500175c.6196593 0 1.1249912.5046288 1.1249912 1.1249912 0 .6203623-.5054023 1.1249912-1.1249912 1.1249912h-2.624956c-.4145593 0-.7500176.3354583-.7500176.7500176 0 .4145592.3354583.7500175.7500176.7500175h1.4999648v.7500176c0 .4145593.3354583.7500176.7500176.7500176s.7500176-.3354583.7500176-.7500176v-.7879157c1.2688494-.1838657 2.2499824-1.2681463 2.2499824-2.5870579 0-1.4472309-1.1777252-2.6249561-2.6249561-2.6249561h-.7500175c-.6196593 0-1.1249912-.5046288-1.1249912-1.1249912 0-.6203623.5054023-1.1250615 1.1249912-1.1250615z"/><path d="m10.5 19c-.82766137 0-1.5.6730963-1.5 1.4999648 0 .8268686.67233863 1.5000352 1.5 1.5000352.8276614 0 1.5-.6730963 1.5-1.4999648 0-.8268686-.6723386-1.5000352-1.5-1.5000352z"/><path d="m28 20.5c0 .8268879.6724089 1.5 1.5 1.5.8276614 0 1.5-.6731121 1.5-1.5s-.6724089-1.5-1.5-1.5c-.8276614-.0000703-1.5.6730418-1.5 1.5z"/></g></g></svg>