<svg height="32" viewBox="0 0 31 32" width="31" xmlns="http://www.w3.org/2000/svg"><g fill="none" fill-rule="evenodd"><path d="m-9-8h48v48h-48z"/><g fill="#707070" fill-rule="nonzero"><path d="m15.0000351 4c-1.654489 0-3.0000351 1.34554612-3.0000351 3.00003514s1.3455461 2.99996486 3.0000351 2.99996486c1.6544891 0 2.9999649-1.34554612 2.9999649-2.99996486s-1.3455461-3.00003514-2.9999649-3.00003514zm0 4.50075549c-.8272445 0-1.5007203-.67347584-1.5007203-1.50072035s.6734758-1.50072035 1.5007203-1.50072035 1.5007204.67347584 1.5007204 1.50072035-.6734759 1.50072035-1.5007204 1.50072035z"/><path d="m30.2954335 13.0908818c.389437 0 .7045665-.3233179.7045665-.7252494v-2.90876989c0-.25636339-.130715-.49424953-.3447204-.62495395l-13.7820124-8.44867372c-.0062088-.00429545-.0124176-.00784091-.0185603-.01138636-.856616-.49002226-1.8226125-.50488588-2.7287667.00995454l-13.78121981 8.45010554c-.21400538.13063624-.34472039.36859056-.34472039.62495395v2.90876989c0 .4019315.31512952.7252494.70456647.7252494h2.11363336v13.0915101c-1.55431313 0-2.81819983 1.3045215-2.81819983 2.90877v2.1816115c0 .4019315.31512952.7272266.70456647.7272266h29.59086703c.389437 0 .7045665-.325227.7045665-.7272266v-2.1816115c0-1.6042485-1.2638867-2.90877-2.8181998-2.90877v-13.0915101zm-.7045664 16.0000074v1.4545213h-28.18180021v-1.4545213c0-.8018175.63230663-1.4545214 1.40906689-1.4545214h.70456647 23.95453345.7045665c.7767602-.0000682 1.4090669.6526358 1.4090669 1.4545214zm-25.36360038-2.9091109v-13.0908965h2.81819983v13.0908965zm4.22726673 0v-13.0908965h4.22726675v13.0908965zm5.63633365 0v-13.0908965h2.8181998v13.0908965zm4.2272667 0v-13.0908965h4.2272667v13.0908965zm5.6363996 0v-13.0908965h2.8181999v13.0908965zm-22.54546651-14.5454179v-1.76774829l13.41595751-8.22728757c.4389752-.24927249.9054277-.24859067 1.3389207-.00497727l13.426922 8.23226484v1.76774829z"/></g></g></svg>