<svg height="32" viewBox="0 0 32 32" width="32" xmlns="http://www.w3.org/2000/svg"><g fill="none" fill-rule="evenodd"><path d="m-8-8h48v48h-48z"/><g fill="#707070" fill-rule="nonzero"><path d="m29.6576802 2.94119675h-23.83951698v.21100624l-.29829566-1.03393747c-.35938662-1.24728746-1.5077738-2.11826552-2.7925929-2.11826552h-1.99997869c-.40200028 0-.72729597.32888297-.72729597.73531642s.32529569.73531642.72729597.73531642h1.99997869c.64275046 0 1.21663723.43517883 1.39629645 1.05916722l4.52700322 15.69173654-2.31961529 2.9311324c-.33095904.4186347-.51279582.9435653-.51279582 1.4791806 0 1.3061569 1.05040984 2.3681504 2.34231985 2.3681504h20.20317343c.4020003 0 .727296-.328883.727296-.7353164 0-.4064335-.3252957-.7353164-.727296-.7353164h-20.20317343c-.48934126 0-.88779609-.4028489-.88779609-.8975865 0-.2032168.06886369-.4028489.19459105-.5607762l2.33720621-2.953398h14.26507826c1.1214554 0 2.1548198-.6627981 2.6328428-1.6888771l5.0753218-10.9037354c.1455683-.31378647.2222729-.66203983.2222729-1.0074669v-.20824889c0-1.30608796-1.0504098-2.36808146-2.3423198-2.36808146zm.887796 2.57639928c0 .13138775-.0291136.26353377-.0845455.3820309l-5.0745718 10.90297707c-.2393183.5127293-.7556596.8444386-1.3167964.8444386h-14.0695327l-3.81845723-13.23528195h23.47610763c.4893412 0 .887796.4028489.887796.89758649z"/><path d="m9 26c-1.65451051 0-3 1.3454192-3 3s1.34541918 3 3 3c1.6545808 0 3-1.3454192 3-3s-1.3454895-3-3-3zm0 4.4999648c-.82686854 0-1.49996484-.6730963-1.49996484-1.4999648s.6730963-1.4999648 1.49996484-1.4999648 1.4999648.6730963 1.4999648 1.4999648-.67309626 1.4999648-1.4999648 1.4999648z"/><path d="m26 26c-1.6545105 0-3 1.3454192-3 3s1.3454192 3 3 3 3-1.3454192 3-3-1.3454895-3-3-3zm0 4.4999648c-.8268685 0-1.4999648-.6730963-1.4999648-1.4999648s.6730963-1.4999648 1.4999648-1.4999648 1.4999648.6730963 1.4999648 1.4999648-.6730963 1.4999648-1.4999648 1.4999648z"/></g></g></svg>