<svg height="32" viewBox="0 0 31 32" width="31" xmlns="http://www.w3.org/2000/svg"><g fill="none" fill-rule="evenodd"><path d="m-9-8h48v48h-48z"/><g fill="#707070" fill-rule="nonzero"><path d="m31 8.72727893v-5.81816323c0-1.60445568-1.2639528-2.9091157-2.8181998-2.9091157h-25.36360037c-1.55431313 0-2.81819983 1.30466002-2.81819983 2.9091157v5.81816323c0 .8730688.38203923 1.64829667.97365842 2.18181977-.59161919.5335912-.97365842 1.3087509-.97365842 2.1818197v5.8181632c0 .8730688.38203923 1.6482285.97365842 2.1818197-.59161919.5335913-.97365842 1.3088192-.97365842 2.1818198v5.8181632c0 1.6043875 1.2638867 2.9091157 2.81819983 2.9091157h25.36360037c1.554247 0 2.8181998-1.30466 2.8181998-2.9091157v-5.8181632c0-.8730688-.3820392-1.6482285-.9736584-2.1818198.5916192-.5335912.9736584-1.3087509.9736584-2.1818197v-5.8181632c0-.8730688-.3820392-1.6482285-.9736584-2.1818197.5915531-.5335913.9736584-1.30875097.9736584-2.18181977zm-1.4091329 20.36367357c0 .8018187-.6323067 1.4545237-1.4090669 1.4545237h-25.36360037c-.77676026 0-1.40906689-.652705-1.40906689-1.4545237v-5.8181632c0-.8018188.63230663-1.4545238 1.40906689-1.4545238h25.36360037c.7767602 0 1.4090669.652705 1.4090669 1.4545238zm0-10.1818709c0 .8018188-.6323067 1.4545238-1.4090669 1.4545238h-25.36360037c-.77676026 0-1.40906689-.652705-1.40906689-1.4545238v-5.8181632c0-.8018188.63230663-1.4545238 1.40906689-1.4545238h25.36360037c.7767602 0 1.4090669.652705 1.4090669 1.4545238zm0-10.18180267c0 .80181875-.6323067 1.45452377-1.4090669 1.45452377h-25.36360037c-.77676026 0-1.40906689-.65270502-1.40906689-1.45452377v-5.81816323c0-.80181875.63230663-1.45452376 1.40906689-1.45452376h25.36360037c.7767602 0 1.4090669.65270501 1.4090669 1.45452376z"/><path d="m4.5 3c-.27636636 0-.5.33539194-.5.74995605v4.50001758c0 .41456412.22363364.75002637.5.75002637s.5-.33546225.5-.75002637v-4.50001758c-.00004687-.41456411-.22368051-.74995605-.5-.74995605z"/><path d="m7.5 3c-.27636636 0-.5.33545832-.5.75001758v4.49996484c0 .41455926.22363364.75001758.5.75001758s.5-.33545832.5-.75001758v-4.49996484c0-.41462958-.22363364-.75001758-.5-.75001758z"/><path d="m10.5 3c-.2763664 0-.5.33545832-.5.75001758v4.49996484c0 .41455926.2236336.75001758.5.75001758s.5-.33545832.5-.75001758v-4.49996484c0-.41462958-.2236336-.75001758-.5-.75001758z"/><circle cx="25.5" cy="5.5" r="1.5"/><circle cx="20.5" cy="5.5" r="1.5"/><path d="m4.5 13c-.27636636 0-.5.3354583-.5.7500176v4.4999648c0 .4145593.22363364.7500176.5.7500176s.5-.3354583.5-.7500176v-4.4999648c-.00004687-.4145593-.22368051-.7500176-.5-.7500176z"/><path d="m7.5 13c-.27636636 0-.5.3354583-.5.7500176v4.4999648c0 .4145593.22363364.7500176.5.7500176s.5-.3354583.5-.7500176v-4.4999648c0-.4145593-.22363364-.7500176-.5-.7500176z"/><path d="m10.5 13c-.2763664 0-.5.3354583-.5.7500176v4.4999648c0 .4145593.2236336.7500176.5.7500176s.5-.3354583.5-.7500176v-4.4999648c0-.4145593-.2236336-.7500176-.5-.7500176z"/><circle cx="25.5" cy="15.5" r="1.5"/><circle cx="20.5" cy="15.5" r="1.5"/><path d="m4.50002344 23c-.27637932 0-.50002344.3354583-.50002344.7500176v4.4999648c0 .4145593.22364412.7500176.50002344.7500176s.49997656-.3354583.49997656-.7500176v-4.4999648c0-.4145593-.22364412-.7500176-.49997656-.7500176z"/><path d="m7.5 23c-.27636636 0-.5.3354583-.5.7500176v4.4999648c0 .4145593.22363364.7500176.5.7500176s.5-.3354583.5-.7500176v-4.4999648c0-.4145593-.22363364-.7500176-.5-.7500176z"/><path d="m10.5 23c-.2763664 0-.5.3354583-.5.7500176v4.4999648c0 .4145593.2236336.7500176.5.7500176s.5-.3354583.5-.7500176v-4.4999648c0-.4145593-.2236336-.7500176-.5-.7500176z"/><circle cx="25.5" cy="26.5" r="1.5"/><circle cx="20.5" cy="26.5" r="1.5"/></g></g></svg>