<svg height="32" viewBox="0 0 24 32" width="24" xmlns="http://www.w3.org/2000/svg"><g fill="none" fill-rule="evenodd"><path d="m-12-8h48v48h-48z"/><g fill="#707070" fill-rule="nonzero"><path d="m18.3182544 24.001451-13.63650885-.001451c-.37612005 0-.68174555.2233092-.68174555.4992745 0 .2754505.30492248.4992745.68174555.4992745l13.63650885.001451c.3761201 0 .6817456-.2233092.6817456-.4992745 0-.2754973-.3049225-.4992745-.6817456-.4992745z"/><path d="m15.3571256 27h-7.71425124c-.3553377 0-.64287436.2236336-.64287436.5s.28753666.5.64287436.5h7.71425124c.3553377 0 .6428744-.2236336.6428744-.5 0-.2764132-.2875367-.5-.6428744-.5z"/><path d="m11.5 8c-4.13553732 0-7.5 3.3644627-7.5 7.5s3.36446268 7.5 7.5 7.5c4.1355373 0 7.5-3.3644627 7.5-7.5s-3.3644627-7.5-7.5-7.5zm-6.06747462 8.1818414h2.67233003c.07549027 1.857278.45907801 3.7043287 1.12493928 5.0076705-2.05626295-.8234896-3.54081972-2.7280688-3.79726931-5.0076705zm2.67239395-1.3636189h-2.67233003c.25644959-2.2796017 1.74100636-4.184117 3.79726931-5.00767048-.66586127 1.30334178-1.04944901 3.15039248-1.12493928 5.00767048zm3.39508067 6.8182225c-.7811741 0-1.87984199-2.1123853-2.01816624-5.4545397h4.03633244c-.1383242 3.3421544-1.2369921 5.4545397-2.0181662 5.4545397zm-2.01816624-6.8182225c.13832425-3.3421544 1.23699214-5.45453965 2.01816624-5.45453965s1.879842 2.11238525 2.0181662 5.45453965zm4.28837154 6.3713533c.6658613-1.3034057 1.049449-3.1503925 1.1249393-5.0076705h2.67233c-.2564496 2.2795378-1.7410063 4.184117-3.7972693 5.0076705zm1.1249393-6.3713533c-.0754903-1.857278-.459078-3.7043287-1.1249393-5.00767048 2.056263.82355348 3.5408837 2.72813278 3.7972693 5.00767048z"/><path d="m21.3332569 4.0002273h-1.333309v-1.37761074c0-1.45660993-1.2325593-2.63703521-2.6666805-2.62248345-.2048745.00226057-.3841865.03063527-.595686.08413472l-14.21371297 3.93039682c-1.40324635.07599921-2.52386843 1.23048726-2.52386843 2.65222255v22.6664529c0 1.4706723 1.19593439 2.6666599 2.66668056 2.6666599h18.66663884c1.4706837 0 2.6666806-1.1959251 2.6666806-2.6666599v-22.6664529c0-1.47067228-1.1959969-2.6666599-2.6667431-2.6666599zm-4.2532389-2.6275978c.777998-.19856045 1.5865584.43162053 1.5865584 1.24998706v1.37761074h-11.08797114zm5.5866105 27.9607106c0 .7349924-.598311 1.3332987-1.3333091 1.3332987h-18.66663884c-.73499809 0-1.33330903-.5983063-1.33330903-1.3332987v-22.6664529c0-.73499239.59831094-1.3332987 1.33330903-1.3332987h18.66663884c.7349981 0 1.3333091.59830631 1.3333091 1.3332987z"/></g></g></svg>