<svg height="32" viewBox="0 0 42 32" width="42" xmlns="http://www.w3.org/2000/svg"><g fill="none" fill-rule="evenodd"><path d="m-3-8h48v48h-48z"/><g fill="#707070" fill-rule="nonzero"><path d="m41.7435708 12.7048333-8.7500102-8.8888333c-.1640622-.16666667-.3862024-.26041667-.6186785-.26041667h-7.8749846v-2.66666666c.000082-.49133334-.3912883-.88891667-.8749436-.88891667h-20.12493339c-1.93035561 0-3.50002051 1.59458333-3.50002051 3.55558333v22.22224997c0 1.4705 1.17747426 2.6666667 2.62499487 2.6666667h2.07259752c.72466264 2.0648333 2.64902998 3.5555 4.92736147 3.5555 2.27841354 0 4.20278084-1.4906667 4.92752554-3.5555833h12.8950412c.7247447 2.0649166 2.64903 3.5555833 4.9274435 3.5555833s4.2027809-1.4906667 4.9275255-3.5555833h1.1974899c1.9302736 0 3.5000205-1.5945834 3.5000205-3.5555834v-11.5555c0-.2360833-.092367-.4618333-.2564292-.6285zm-32.11861694 17.5174167c-1.93027358 0-3.50002051-1.5945833-3.50002051-3.5555833s1.5696649-3.5555834 3.50002051-3.5555834c1.93035564 0 3.50002054 1.5946667 3.50002054 3.5555834 0 1.9609166-1.5696649 3.5555833-3.50002054 3.5555833zm13.12497434-25.77783333v22.22225003h-7.8749846c0-2.941-2.3549485-5.3333334-5.24998974-5.3333334-2.89504122 0-5.24998975 2.3923334-5.24998975 5.3333334h-1.74996924c-.48275296 0-.87502563-.3984167-.87502563-.8889167v-22.22216667c0-.98.78528362-1.77775 1.74996924-1.77775h19.24998972zm9.6250359 25.77783333c-1.9303556 0-3.5000205-1.5946667-3.5000205-3.5555833 0-1.9609167 1.5696649-3.5555834 3.5000205-3.5555834s3.5000205 1.5945834 3.5000205 3.5555834-1.5697469 3.5555833-3.5000205 3.5555833zm7.8749846-5.3333333c0 .98-.7852836 1.77775-1.7499692 1.77775h-.8750256c0-2.941-2.3549486-5.3333334-5.2499898-5.3333334s-5.2499897 2.3923334-5.2499897 5.3333334h-2.6249949v-21.33333337h7.5126533l8.2373159 8.36808337z"/><path d="m29.6667057 7.90002531c0-.49747344-.3727314-.90002531-.8333528-.90002531s-.8333529.40255187-.8333529.90002531v7.19994939c0 .4974734.3727315.9000253.8333529.9000253h8.3332942c.4606214 0 .8333529-.4025519.8333529-.9000253 0-.4974735-.3727315-.9000253-.8333529-.9000253h-7.4999414z"/></g></g></svg>